<mxfile host="app.diagrams.net" agent="Mozilla/5.0 (Windows NT 10.0; Win64; x64) AppleWebKit/537.36 (KHTML, like Gecko) Chrome/134.0.0.0 Safari/537.36" version="26.0.16">
  <diagram id="R2lEEEUBdFMjLlhIrx00" name="Page-1">
    <mxGraphModel dx="2314" dy="1080" grid="1" gridSize="10" guides="1" tooltips="1" connect="1" arrows="1" fold="1" page="1" pageScale="1" pageWidth="850" pageHeight="1100" math="0" shadow="0" extFonts="Permanent Marker^https://fonts.googleapis.com/css?family=Permanent+Marker">
      <root>
        <mxCell id="0" />
        <mxCell id="1" parent="0" />
        <mxCell id="6kLEhNdqr8ct7NocNxT4-1" value="DEPARTMENTS" style="shape=table;startSize=25;container=1;collapsible=0;childLayout=tableLayout;fixedRows=1;rowLines=1;fontStyle=1;align=center;resizeLast=1;" vertex="1" parent="1">
          <mxGeometry x="641" y="20" width="208" height="113" as="geometry" />
        </mxCell>
        <mxCell id="6kLEhNdqr8ct7NocNxT4-2" style="shape=tableRow;horizontal=0;startSize=0;swimlaneHead=0;swimlaneBody=0;fillColor=none;collapsible=0;dropTarget=0;points=[[0,0.5],[1,0.5]];portConstraint=eastwest;top=0;left=0;right=0;bottom=0;" vertex="1" parent="6kLEhNdqr8ct7NocNxT4-1">
          <mxGeometry y="25" width="208" height="22" as="geometry" />
        </mxCell>
        <mxCell id="6kLEhNdqr8ct7NocNxT4-3" value="int" style="shape=partialRectangle;connectable=0;fillColor=none;top=0;left=0;bottom=0;right=0;align=left;spacingLeft=2;overflow=hidden;fontSize=11;" vertex="1" parent="6kLEhNdqr8ct7NocNxT4-2">
          <mxGeometry width="36" height="22" as="geometry">
            <mxRectangle width="36" height="22" as="alternateBounds" />
          </mxGeometry>
        </mxCell>
        <mxCell id="6kLEhNdqr8ct7NocNxT4-4" value="department_id" style="shape=partialRectangle;connectable=0;fillColor=none;top=0;left=0;bottom=0;right=0;align=left;spacingLeft=2;overflow=hidden;fontSize=11;" vertex="1" parent="6kLEhNdqr8ct7NocNxT4-2">
          <mxGeometry x="36" width="84" height="22" as="geometry">
            <mxRectangle width="84" height="22" as="alternateBounds" />
          </mxGeometry>
        </mxCell>
        <mxCell id="6kLEhNdqr8ct7NocNxT4-5" value="PK" style="shape=partialRectangle;connectable=0;fillColor=none;top=0;left=0;bottom=0;right=0;align=left;spacingLeft=2;overflow=hidden;fontSize=11;" vertex="1" parent="6kLEhNdqr8ct7NocNxT4-2">
          <mxGeometry x="120" width="22" height="22" as="geometry">
            <mxRectangle width="22" height="22" as="alternateBounds" />
          </mxGeometry>
        </mxCell>
        <mxCell id="6kLEhNdqr8ct7NocNxT4-6" value="Primary Key" style="shape=partialRectangle;connectable=0;fillColor=none;top=0;left=0;bottom=0;right=0;align=left;spacingLeft=2;overflow=hidden;fontSize=11;" vertex="1" parent="6kLEhNdqr8ct7NocNxT4-2">
          <mxGeometry x="142" width="66" height="22" as="geometry">
            <mxRectangle width="66" height="22" as="alternateBounds" />
          </mxGeometry>
        </mxCell>
        <mxCell id="6kLEhNdqr8ct7NocNxT4-7" style="shape=tableRow;horizontal=0;startSize=0;swimlaneHead=0;swimlaneBody=0;fillColor=none;collapsible=0;dropTarget=0;points=[[0,0.5],[1,0.5]];portConstraint=eastwest;top=0;left=0;right=0;bottom=0;" vertex="1" parent="6kLEhNdqr8ct7NocNxT4-1">
          <mxGeometry y="47" width="208" height="22" as="geometry" />
        </mxCell>
        <mxCell id="6kLEhNdqr8ct7NocNxT4-8" value="string" style="shape=partialRectangle;connectable=0;fillColor=none;top=0;left=0;bottom=0;right=0;align=left;spacingLeft=2;overflow=hidden;fontSize=11;" vertex="1" parent="6kLEhNdqr8ct7NocNxT4-7">
          <mxGeometry width="36" height="22" as="geometry">
            <mxRectangle width="36" height="22" as="alternateBounds" />
          </mxGeometry>
        </mxCell>
        <mxCell id="6kLEhNdqr8ct7NocNxT4-9" value="dept_name" style="shape=partialRectangle;connectable=0;fillColor=none;top=0;left=0;bottom=0;right=0;align=left;spacingLeft=2;overflow=hidden;fontSize=11;" vertex="1" parent="6kLEhNdqr8ct7NocNxT4-7">
          <mxGeometry x="36" width="84" height="22" as="geometry">
            <mxRectangle width="84" height="22" as="alternateBounds" />
          </mxGeometry>
        </mxCell>
        <mxCell id="6kLEhNdqr8ct7NocNxT4-10" value="" style="shape=partialRectangle;connectable=0;fillColor=none;top=0;left=0;bottom=0;right=0;align=left;spacingLeft=2;overflow=hidden;fontSize=11;" vertex="1" parent="6kLEhNdqr8ct7NocNxT4-7">
          <mxGeometry x="120" width="22" height="22" as="geometry">
            <mxRectangle width="22" height="22" as="alternateBounds" />
          </mxGeometry>
        </mxCell>
        <mxCell id="6kLEhNdqr8ct7NocNxT4-11" value="" style="shape=partialRectangle;connectable=0;fillColor=none;top=0;left=0;bottom=0;right=0;align=left;spacingLeft=2;overflow=hidden;fontSize=11;" vertex="1" parent="6kLEhNdqr8ct7NocNxT4-7">
          <mxGeometry x="142" width="66" height="22" as="geometry">
            <mxRectangle width="66" height="22" as="alternateBounds" />
          </mxGeometry>
        </mxCell>
        <mxCell id="6kLEhNdqr8ct7NocNxT4-12" style="shape=tableRow;horizontal=0;startSize=0;swimlaneHead=0;swimlaneBody=0;fillColor=none;collapsible=0;dropTarget=0;points=[[0,0.5],[1,0.5]];portConstraint=eastwest;top=0;left=0;right=0;bottom=0;" vertex="1" parent="6kLEhNdqr8ct7NocNxT4-1">
          <mxGeometry y="69" width="208" height="22" as="geometry" />
        </mxCell>
        <mxCell id="6kLEhNdqr8ct7NocNxT4-13" value="string" style="shape=partialRectangle;connectable=0;fillColor=none;top=0;left=0;bottom=0;right=0;align=left;spacingLeft=2;overflow=hidden;fontSize=11;" vertex="1" parent="6kLEhNdqr8ct7NocNxT4-12">
          <mxGeometry width="36" height="22" as="geometry">
            <mxRectangle width="36" height="22" as="alternateBounds" />
          </mxGeometry>
        </mxCell>
        <mxCell id="6kLEhNdqr8ct7NocNxT4-14" value="faculty" style="shape=partialRectangle;connectable=0;fillColor=none;top=0;left=0;bottom=0;right=0;align=left;spacingLeft=2;overflow=hidden;fontSize=11;" vertex="1" parent="6kLEhNdqr8ct7NocNxT4-12">
          <mxGeometry x="36" width="84" height="22" as="geometry">
            <mxRectangle width="84" height="22" as="alternateBounds" />
          </mxGeometry>
        </mxCell>
        <mxCell id="6kLEhNdqr8ct7NocNxT4-15" value="" style="shape=partialRectangle;connectable=0;fillColor=none;top=0;left=0;bottom=0;right=0;align=left;spacingLeft=2;overflow=hidden;fontSize=11;" vertex="1" parent="6kLEhNdqr8ct7NocNxT4-12">
          <mxGeometry x="120" width="22" height="22" as="geometry">
            <mxRectangle width="22" height="22" as="alternateBounds" />
          </mxGeometry>
        </mxCell>
        <mxCell id="6kLEhNdqr8ct7NocNxT4-16" value="" style="shape=partialRectangle;connectable=0;fillColor=none;top=0;left=0;bottom=0;right=0;align=left;spacingLeft=2;overflow=hidden;fontSize=11;" vertex="1" parent="6kLEhNdqr8ct7NocNxT4-12">
          <mxGeometry x="142" width="66" height="22" as="geometry">
            <mxRectangle width="66" height="22" as="alternateBounds" />
          </mxGeometry>
        </mxCell>
        <mxCell id="6kLEhNdqr8ct7NocNxT4-17" style="shape=tableRow;horizontal=0;startSize=0;swimlaneHead=0;swimlaneBody=0;fillColor=none;collapsible=0;dropTarget=0;points=[[0,0.5],[1,0.5]];portConstraint=eastwest;top=0;left=0;right=0;bottom=0;" vertex="1" parent="6kLEhNdqr8ct7NocNxT4-1">
          <mxGeometry y="91" width="208" height="22" as="geometry" />
        </mxCell>
        <mxCell id="6kLEhNdqr8ct7NocNxT4-18" value="string" style="shape=partialRectangle;connectable=0;fillColor=none;top=0;left=0;bottom=0;right=0;align=left;spacingLeft=2;overflow=hidden;fontSize=11;" vertex="1" parent="6kLEhNdqr8ct7NocNxT4-17">
          <mxGeometry width="36" height="22" as="geometry">
            <mxRectangle width="36" height="22" as="alternateBounds" />
          </mxGeometry>
        </mxCell>
        <mxCell id="6kLEhNdqr8ct7NocNxT4-19" value="research_areas" style="shape=partialRectangle;connectable=0;fillColor=none;top=0;left=0;bottom=0;right=0;align=left;spacingLeft=2;overflow=hidden;fontSize=11;" vertex="1" parent="6kLEhNdqr8ct7NocNxT4-17">
          <mxGeometry x="36" width="84" height="22" as="geometry">
            <mxRectangle width="84" height="22" as="alternateBounds" />
          </mxGeometry>
        </mxCell>
        <mxCell id="6kLEhNdqr8ct7NocNxT4-20" value="" style="shape=partialRectangle;connectable=0;fillColor=none;top=0;left=0;bottom=0;right=0;align=left;spacingLeft=2;overflow=hidden;fontSize=11;" vertex="1" parent="6kLEhNdqr8ct7NocNxT4-17">
          <mxGeometry x="120" width="22" height="22" as="geometry">
            <mxRectangle width="22" height="22" as="alternateBounds" />
          </mxGeometry>
        </mxCell>
        <mxCell id="6kLEhNdqr8ct7NocNxT4-21" value="" style="shape=partialRectangle;connectable=0;fillColor=none;top=0;left=0;bottom=0;right=0;align=left;spacingLeft=2;overflow=hidden;fontSize=11;" vertex="1" parent="6kLEhNdqr8ct7NocNxT4-17">
          <mxGeometry x="142" width="66" height="22" as="geometry">
            <mxRectangle width="66" height="22" as="alternateBounds" />
          </mxGeometry>
        </mxCell>
        <mxCell id="6kLEhNdqr8ct7NocNxT4-22" value="PROGRAMS" style="shape=table;startSize=25;container=1;collapsible=0;childLayout=tableLayout;fixedRows=1;rowLines=1;fontStyle=1;align=center;resizeLast=1;" vertex="1" parent="1">
          <mxGeometry x="1312" y="265" width="238" height="157" as="geometry" />
        </mxCell>
        <mxCell id="6kLEhNdqr8ct7NocNxT4-23" style="shape=tableRow;horizontal=0;startSize=0;swimlaneHead=0;swimlaneBody=0;fillColor=none;collapsible=0;dropTarget=0;points=[[0,0.5],[1,0.5]];portConstraint=eastwest;top=0;left=0;right=0;bottom=0;" vertex="1" parent="6kLEhNdqr8ct7NocNxT4-22">
          <mxGeometry y="25" width="238" height="22" as="geometry" />
        </mxCell>
        <mxCell id="6kLEhNdqr8ct7NocNxT4-24" value="string" style="shape=partialRectangle;connectable=0;fillColor=none;top=0;left=0;bottom=0;right=0;align=left;spacingLeft=2;overflow=hidden;fontSize=11;" vertex="1" parent="6kLEhNdqr8ct7NocNxT4-23">
          <mxGeometry width="36" height="22" as="geometry">
            <mxRectangle width="36" height="22" as="alternateBounds" />
          </mxGeometry>
        </mxCell>
        <mxCell id="6kLEhNdqr8ct7NocNxT4-25" value="program_id" style="shape=partialRectangle;connectable=0;fillColor=none;top=0;left=0;bottom=0;right=0;align=left;spacingLeft=2;overflow=hidden;fontSize=11;" vertex="1" parent="6kLEhNdqr8ct7NocNxT4-23">
          <mxGeometry x="36" width="114" height="22" as="geometry">
            <mxRectangle width="114" height="22" as="alternateBounds" />
          </mxGeometry>
        </mxCell>
        <mxCell id="6kLEhNdqr8ct7NocNxT4-26" value="PK" style="shape=partialRectangle;connectable=0;fillColor=none;top=0;left=0;bottom=0;right=0;align=left;spacingLeft=2;overflow=hidden;fontSize=11;" vertex="1" parent="6kLEhNdqr8ct7NocNxT4-23">
          <mxGeometry x="150" width="22" height="22" as="geometry">
            <mxRectangle width="22" height="22" as="alternateBounds" />
          </mxGeometry>
        </mxCell>
        <mxCell id="6kLEhNdqr8ct7NocNxT4-27" value="Primary Key" style="shape=partialRectangle;connectable=0;fillColor=none;top=0;left=0;bottom=0;right=0;align=left;spacingLeft=2;overflow=hidden;fontSize=11;" vertex="1" parent="6kLEhNdqr8ct7NocNxT4-23">
          <mxGeometry x="172" width="66" height="22" as="geometry">
            <mxRectangle width="66" height="22" as="alternateBounds" />
          </mxGeometry>
        </mxCell>
        <mxCell id="6kLEhNdqr8ct7NocNxT4-28" style="shape=tableRow;horizontal=0;startSize=0;swimlaneHead=0;swimlaneBody=0;fillColor=none;collapsible=0;dropTarget=0;points=[[0,0.5],[1,0.5]];portConstraint=eastwest;top=0;left=0;right=0;bottom=0;" vertex="1" parent="6kLEhNdqr8ct7NocNxT4-22">
          <mxGeometry y="47" width="238" height="22" as="geometry" />
        </mxCell>
        <mxCell id="6kLEhNdqr8ct7NocNxT4-29" value="string" style="shape=partialRectangle;connectable=0;fillColor=none;top=0;left=0;bottom=0;right=0;align=left;spacingLeft=2;overflow=hidden;fontSize=11;" vertex="1" parent="6kLEhNdqr8ct7NocNxT4-28">
          <mxGeometry width="36" height="22" as="geometry">
            <mxRectangle width="36" height="22" as="alternateBounds" />
          </mxGeometry>
        </mxCell>
        <mxCell id="6kLEhNdqr8ct7NocNxT4-30" value="program_name" style="shape=partialRectangle;connectable=0;fillColor=none;top=0;left=0;bottom=0;right=0;align=left;spacingLeft=2;overflow=hidden;fontSize=11;" vertex="1" parent="6kLEhNdqr8ct7NocNxT4-28">
          <mxGeometry x="36" width="114" height="22" as="geometry">
            <mxRectangle width="114" height="22" as="alternateBounds" />
          </mxGeometry>
        </mxCell>
        <mxCell id="6kLEhNdqr8ct7NocNxT4-31" value="" style="shape=partialRectangle;connectable=0;fillColor=none;top=0;left=0;bottom=0;right=0;align=left;spacingLeft=2;overflow=hidden;fontSize=11;" vertex="1" parent="6kLEhNdqr8ct7NocNxT4-28">
          <mxGeometry x="150" width="22" height="22" as="geometry">
            <mxRectangle width="22" height="22" as="alternateBounds" />
          </mxGeometry>
        </mxCell>
        <mxCell id="6kLEhNdqr8ct7NocNxT4-32" value="" style="shape=partialRectangle;connectable=0;fillColor=none;top=0;left=0;bottom=0;right=0;align=left;spacingLeft=2;overflow=hidden;fontSize=11;" vertex="1" parent="6kLEhNdqr8ct7NocNxT4-28">
          <mxGeometry x="172" width="66" height="22" as="geometry">
            <mxRectangle width="66" height="22" as="alternateBounds" />
          </mxGeometry>
        </mxCell>
        <mxCell id="6kLEhNdqr8ct7NocNxT4-33" style="shape=tableRow;horizontal=0;startSize=0;swimlaneHead=0;swimlaneBody=0;fillColor=none;collapsible=0;dropTarget=0;points=[[0,0.5],[1,0.5]];portConstraint=eastwest;top=0;left=0;right=0;bottom=0;" vertex="1" parent="6kLEhNdqr8ct7NocNxT4-22">
          <mxGeometry y="69" width="238" height="22" as="geometry" />
        </mxCell>
        <mxCell id="6kLEhNdqr8ct7NocNxT4-34" value="string" style="shape=partialRectangle;connectable=0;fillColor=none;top=0;left=0;bottom=0;right=0;align=left;spacingLeft=2;overflow=hidden;fontSize=11;" vertex="1" parent="6kLEhNdqr8ct7NocNxT4-33">
          <mxGeometry width="36" height="22" as="geometry">
            <mxRectangle width="36" height="22" as="alternateBounds" />
          </mxGeometry>
        </mxCell>
        <mxCell id="6kLEhNdqr8ct7NocNxT4-35" value="degree_awarded" style="shape=partialRectangle;connectable=0;fillColor=none;top=0;left=0;bottom=0;right=0;align=left;spacingLeft=2;overflow=hidden;fontSize=11;" vertex="1" parent="6kLEhNdqr8ct7NocNxT4-33">
          <mxGeometry x="36" width="114" height="22" as="geometry">
            <mxRectangle width="114" height="22" as="alternateBounds" />
          </mxGeometry>
        </mxCell>
        <mxCell id="6kLEhNdqr8ct7NocNxT4-36" value="" style="shape=partialRectangle;connectable=0;fillColor=none;top=0;left=0;bottom=0;right=0;align=left;spacingLeft=2;overflow=hidden;fontSize=11;" vertex="1" parent="6kLEhNdqr8ct7NocNxT4-33">
          <mxGeometry x="150" width="22" height="22" as="geometry">
            <mxRectangle width="22" height="22" as="alternateBounds" />
          </mxGeometry>
        </mxCell>
        <mxCell id="6kLEhNdqr8ct7NocNxT4-37" value="" style="shape=partialRectangle;connectable=0;fillColor=none;top=0;left=0;bottom=0;right=0;align=left;spacingLeft=2;overflow=hidden;fontSize=11;" vertex="1" parent="6kLEhNdqr8ct7NocNxT4-33">
          <mxGeometry x="172" width="66" height="22" as="geometry">
            <mxRectangle width="66" height="22" as="alternateBounds" />
          </mxGeometry>
        </mxCell>
        <mxCell id="6kLEhNdqr8ct7NocNxT4-38" style="shape=tableRow;horizontal=0;startSize=0;swimlaneHead=0;swimlaneBody=0;fillColor=none;collapsible=0;dropTarget=0;points=[[0,0.5],[1,0.5]];portConstraint=eastwest;top=0;left=0;right=0;bottom=0;" vertex="1" parent="6kLEhNdqr8ct7NocNxT4-22">
          <mxGeometry y="91" width="238" height="22" as="geometry" />
        </mxCell>
        <mxCell id="6kLEhNdqr8ct7NocNxT4-39" value="int" style="shape=partialRectangle;connectable=0;fillColor=none;top=0;left=0;bottom=0;right=0;align=left;spacingLeft=2;overflow=hidden;fontSize=11;" vertex="1" parent="6kLEhNdqr8ct7NocNxT4-38">
          <mxGeometry width="36" height="22" as="geometry">
            <mxRectangle width="36" height="22" as="alternateBounds" />
          </mxGeometry>
        </mxCell>
        <mxCell id="6kLEhNdqr8ct7NocNxT4-40" value="duration" style="shape=partialRectangle;connectable=0;fillColor=none;top=0;left=0;bottom=0;right=0;align=left;spacingLeft=2;overflow=hidden;fontSize=11;" vertex="1" parent="6kLEhNdqr8ct7NocNxT4-38">
          <mxGeometry x="36" width="114" height="22" as="geometry">
            <mxRectangle width="114" height="22" as="alternateBounds" />
          </mxGeometry>
        </mxCell>
        <mxCell id="6kLEhNdqr8ct7NocNxT4-41" value="" style="shape=partialRectangle;connectable=0;fillColor=none;top=0;left=0;bottom=0;right=0;align=left;spacingLeft=2;overflow=hidden;fontSize=11;" vertex="1" parent="6kLEhNdqr8ct7NocNxT4-38">
          <mxGeometry x="150" width="22" height="22" as="geometry">
            <mxRectangle width="22" height="22" as="alternateBounds" />
          </mxGeometry>
        </mxCell>
        <mxCell id="6kLEhNdqr8ct7NocNxT4-42" value="" style="shape=partialRectangle;connectable=0;fillColor=none;top=0;left=0;bottom=0;right=0;align=left;spacingLeft=2;overflow=hidden;fontSize=11;" vertex="1" parent="6kLEhNdqr8ct7NocNxT4-38">
          <mxGeometry x="172" width="66" height="22" as="geometry">
            <mxRectangle width="66" height="22" as="alternateBounds" />
          </mxGeometry>
        </mxCell>
        <mxCell id="6kLEhNdqr8ct7NocNxT4-43" style="shape=tableRow;horizontal=0;startSize=0;swimlaneHead=0;swimlaneBody=0;fillColor=none;collapsible=0;dropTarget=0;points=[[0,0.5],[1,0.5]];portConstraint=eastwest;top=0;left=0;right=0;bottom=0;" vertex="1" parent="6kLEhNdqr8ct7NocNxT4-22">
          <mxGeometry y="113" width="238" height="22" as="geometry" />
        </mxCell>
        <mxCell id="6kLEhNdqr8ct7NocNxT4-44" value="string" style="shape=partialRectangle;connectable=0;fillColor=none;top=0;left=0;bottom=0;right=0;align=left;spacingLeft=2;overflow=hidden;fontSize=11;" vertex="1" parent="6kLEhNdqr8ct7NocNxT4-43">
          <mxGeometry width="36" height="22" as="geometry">
            <mxRectangle width="36" height="22" as="alternateBounds" />
          </mxGeometry>
        </mxCell>
        <mxCell id="6kLEhNdqr8ct7NocNxT4-45" value="course_requirements" style="shape=partialRectangle;connectable=0;fillColor=none;top=0;left=0;bottom=0;right=0;align=left;spacingLeft=2;overflow=hidden;fontSize=11;" vertex="1" parent="6kLEhNdqr8ct7NocNxT4-43">
          <mxGeometry x="36" width="114" height="22" as="geometry">
            <mxRectangle width="114" height="22" as="alternateBounds" />
          </mxGeometry>
        </mxCell>
        <mxCell id="6kLEhNdqr8ct7NocNxT4-46" value="" style="shape=partialRectangle;connectable=0;fillColor=none;top=0;left=0;bottom=0;right=0;align=left;spacingLeft=2;overflow=hidden;fontSize=11;" vertex="1" parent="6kLEhNdqr8ct7NocNxT4-43">
          <mxGeometry x="150" width="22" height="22" as="geometry">
            <mxRectangle width="22" height="22" as="alternateBounds" />
          </mxGeometry>
        </mxCell>
        <mxCell id="6kLEhNdqr8ct7NocNxT4-47" value="" style="shape=partialRectangle;connectable=0;fillColor=none;top=0;left=0;bottom=0;right=0;align=left;spacingLeft=2;overflow=hidden;fontSize=11;" vertex="1" parent="6kLEhNdqr8ct7NocNxT4-43">
          <mxGeometry x="172" width="66" height="22" as="geometry">
            <mxRectangle width="66" height="22" as="alternateBounds" />
          </mxGeometry>
        </mxCell>
        <mxCell id="6kLEhNdqr8ct7NocNxT4-48" style="shape=tableRow;horizontal=0;startSize=0;swimlaneHead=0;swimlaneBody=0;fillColor=none;collapsible=0;dropTarget=0;points=[[0,0.5],[1,0.5]];portConstraint=eastwest;top=0;left=0;right=0;bottom=0;" vertex="1" parent="6kLEhNdqr8ct7NocNxT4-22">
          <mxGeometry y="135" width="238" height="22" as="geometry" />
        </mxCell>
        <mxCell id="6kLEhNdqr8ct7NocNxT4-49" value="string" style="shape=partialRectangle;connectable=0;fillColor=none;top=0;left=0;bottom=0;right=0;align=left;spacingLeft=2;overflow=hidden;fontSize=11;" vertex="1" parent="6kLEhNdqr8ct7NocNxT4-48">
          <mxGeometry width="36" height="22" as="geometry">
            <mxRectangle width="36" height="22" as="alternateBounds" />
          </mxGeometry>
        </mxCell>
        <mxCell id="6kLEhNdqr8ct7NocNxT4-50" value="enrollment_details" style="shape=partialRectangle;connectable=0;fillColor=none;top=0;left=0;bottom=0;right=0;align=left;spacingLeft=2;overflow=hidden;fontSize=11;" vertex="1" parent="6kLEhNdqr8ct7NocNxT4-48">
          <mxGeometry x="36" width="114" height="22" as="geometry">
            <mxRectangle width="114" height="22" as="alternateBounds" />
          </mxGeometry>
        </mxCell>
        <mxCell id="6kLEhNdqr8ct7NocNxT4-51" value="" style="shape=partialRectangle;connectable=0;fillColor=none;top=0;left=0;bottom=0;right=0;align=left;spacingLeft=2;overflow=hidden;fontSize=11;" vertex="1" parent="6kLEhNdqr8ct7NocNxT4-48">
          <mxGeometry x="150" width="22" height="22" as="geometry">
            <mxRectangle width="22" height="22" as="alternateBounds" />
          </mxGeometry>
        </mxCell>
        <mxCell id="6kLEhNdqr8ct7NocNxT4-52" value="" style="shape=partialRectangle;connectable=0;fillColor=none;top=0;left=0;bottom=0;right=0;align=left;spacingLeft=2;overflow=hidden;fontSize=11;" vertex="1" parent="6kLEhNdqr8ct7NocNxT4-48">
          <mxGeometry x="172" width="66" height="22" as="geometry">
            <mxRectangle width="66" height="22" as="alternateBounds" />
          </mxGeometry>
        </mxCell>
        <mxCell id="6kLEhNdqr8ct7NocNxT4-53" value="LECTURERS" style="shape=table;startSize=25;container=1;collapsible=0;childLayout=tableLayout;fixedRows=1;rowLines=1;fontStyle=1;align=center;resizeLast=1;" vertex="1" parent="1">
          <mxGeometry x="485" y="232" width="352" height="223" as="geometry" />
        </mxCell>
        <mxCell id="6kLEhNdqr8ct7NocNxT4-54" style="shape=tableRow;horizontal=0;startSize=0;swimlaneHead=0;swimlaneBody=0;fillColor=none;collapsible=0;dropTarget=0;points=[[0,0.5],[1,0.5]];portConstraint=eastwest;top=0;left=0;right=0;bottom=0;" vertex="1" parent="6kLEhNdqr8ct7NocNxT4-53">
          <mxGeometry y="25" width="352" height="22" as="geometry" />
        </mxCell>
        <mxCell id="6kLEhNdqr8ct7NocNxT4-55" value="int" style="shape=partialRectangle;connectable=0;fillColor=none;top=0;left=0;bottom=0;right=0;align=left;spacingLeft=2;overflow=hidden;fontSize=11;" vertex="1" parent="6kLEhNdqr8ct7NocNxT4-54">
          <mxGeometry width="36" height="22" as="geometry">
            <mxRectangle width="36" height="22" as="alternateBounds" />
          </mxGeometry>
        </mxCell>
        <mxCell id="6kLEhNdqr8ct7NocNxT4-56" value="lecturer_id" style="shape=partialRectangle;connectable=0;fillColor=none;top=0;left=0;bottom=0;right=0;align=left;spacingLeft=2;overflow=hidden;fontSize=11;" vertex="1" parent="6kLEhNdqr8ct7NocNxT4-54">
          <mxGeometry x="36" width="138" height="22" as="geometry">
            <mxRectangle width="138" height="22" as="alternateBounds" />
          </mxGeometry>
        </mxCell>
        <mxCell id="6kLEhNdqr8ct7NocNxT4-57" value="PK" style="shape=partialRectangle;connectable=0;fillColor=none;top=0;left=0;bottom=0;right=0;align=left;spacingLeft=2;overflow=hidden;fontSize=11;" vertex="1" parent="6kLEhNdqr8ct7NocNxT4-54">
          <mxGeometry x="174" width="22" height="22" as="geometry">
            <mxRectangle width="22" height="22" as="alternateBounds" />
          </mxGeometry>
        </mxCell>
        <mxCell id="6kLEhNdqr8ct7NocNxT4-58" value="Primary Key" style="shape=partialRectangle;connectable=0;fillColor=none;top=0;left=0;bottom=0;right=0;align=left;spacingLeft=2;overflow=hidden;fontSize=11;" vertex="1" parent="6kLEhNdqr8ct7NocNxT4-54">
          <mxGeometry x="196" width="156" height="22" as="geometry">
            <mxRectangle width="156" height="22" as="alternateBounds" />
          </mxGeometry>
        </mxCell>
        <mxCell id="6kLEhNdqr8ct7NocNxT4-59" style="shape=tableRow;horizontal=0;startSize=0;swimlaneHead=0;swimlaneBody=0;fillColor=none;collapsible=0;dropTarget=0;points=[[0,0.5],[1,0.5]];portConstraint=eastwest;top=0;left=0;right=0;bottom=0;" vertex="1" parent="6kLEhNdqr8ct7NocNxT4-53">
          <mxGeometry y="47" width="352" height="22" as="geometry" />
        </mxCell>
        <mxCell id="6kLEhNdqr8ct7NocNxT4-60" value="string" style="shape=partialRectangle;connectable=0;fillColor=none;top=0;left=0;bottom=0;right=0;align=left;spacingLeft=2;overflow=hidden;fontSize=11;" vertex="1" parent="6kLEhNdqr8ct7NocNxT4-59">
          <mxGeometry width="36" height="22" as="geometry">
            <mxRectangle width="36" height="22" as="alternateBounds" />
          </mxGeometry>
        </mxCell>
        <mxCell id="6kLEhNdqr8ct7NocNxT4-61" value="name" style="shape=partialRectangle;connectable=0;fillColor=none;top=0;left=0;bottom=0;right=0;align=left;spacingLeft=2;overflow=hidden;fontSize=11;" vertex="1" parent="6kLEhNdqr8ct7NocNxT4-59">
          <mxGeometry x="36" width="138" height="22" as="geometry">
            <mxRectangle width="138" height="22" as="alternateBounds" />
          </mxGeometry>
        </mxCell>
        <mxCell id="6kLEhNdqr8ct7NocNxT4-62" value="" style="shape=partialRectangle;connectable=0;fillColor=none;top=0;left=0;bottom=0;right=0;align=left;spacingLeft=2;overflow=hidden;fontSize=11;" vertex="1" parent="6kLEhNdqr8ct7NocNxT4-59">
          <mxGeometry x="174" width="22" height="22" as="geometry">
            <mxRectangle width="22" height="22" as="alternateBounds" />
          </mxGeometry>
        </mxCell>
        <mxCell id="6kLEhNdqr8ct7NocNxT4-63" value="" style="shape=partialRectangle;connectable=0;fillColor=none;top=0;left=0;bottom=0;right=0;align=left;spacingLeft=2;overflow=hidden;fontSize=11;" vertex="1" parent="6kLEhNdqr8ct7NocNxT4-59">
          <mxGeometry x="196" width="156" height="22" as="geometry">
            <mxRectangle width="156" height="22" as="alternateBounds" />
          </mxGeometry>
        </mxCell>
        <mxCell id="6kLEhNdqr8ct7NocNxT4-64" style="shape=tableRow;horizontal=0;startSize=0;swimlaneHead=0;swimlaneBody=0;fillColor=none;collapsible=0;dropTarget=0;points=[[0,0.5],[1,0.5]];portConstraint=eastwest;top=0;left=0;right=0;bottom=0;" vertex="1" parent="6kLEhNdqr8ct7NocNxT4-53">
          <mxGeometry y="69" width="352" height="22" as="geometry" />
        </mxCell>
        <mxCell id="6kLEhNdqr8ct7NocNxT4-65" value="int" style="shape=partialRectangle;connectable=0;fillColor=none;top=0;left=0;bottom=0;right=0;align=left;spacingLeft=2;overflow=hidden;fontSize=11;" vertex="1" parent="6kLEhNdqr8ct7NocNxT4-64">
          <mxGeometry width="36" height="22" as="geometry">
            <mxRectangle width="36" height="22" as="alternateBounds" />
          </mxGeometry>
        </mxCell>
        <mxCell id="6kLEhNdqr8ct7NocNxT4-66" value="department_id" style="shape=partialRectangle;connectable=0;fillColor=none;top=0;left=0;bottom=0;right=0;align=left;spacingLeft=2;overflow=hidden;fontSize=11;" vertex="1" parent="6kLEhNdqr8ct7NocNxT4-64">
          <mxGeometry x="36" width="138" height="22" as="geometry">
            <mxRectangle width="138" height="22" as="alternateBounds" />
          </mxGeometry>
        </mxCell>
        <mxCell id="6kLEhNdqr8ct7NocNxT4-67" value="FK" style="shape=partialRectangle;connectable=0;fillColor=none;top=0;left=0;bottom=0;right=0;align=left;spacingLeft=2;overflow=hidden;fontSize=11;" vertex="1" parent="6kLEhNdqr8ct7NocNxT4-64">
          <mxGeometry x="174" width="22" height="22" as="geometry">
            <mxRectangle width="22" height="22" as="alternateBounds" />
          </mxGeometry>
        </mxCell>
        <mxCell id="6kLEhNdqr8ct7NocNxT4-68" value="Foreign Key to Departments" style="shape=partialRectangle;connectable=0;fillColor=none;top=0;left=0;bottom=0;right=0;align=left;spacingLeft=2;overflow=hidden;fontSize=11;" vertex="1" parent="6kLEhNdqr8ct7NocNxT4-64">
          <mxGeometry x="196" width="156" height="22" as="geometry">
            <mxRectangle width="156" height="22" as="alternateBounds" />
          </mxGeometry>
        </mxCell>
        <mxCell id="6kLEhNdqr8ct7NocNxT4-69" style="shape=tableRow;horizontal=0;startSize=0;swimlaneHead=0;swimlaneBody=0;fillColor=none;collapsible=0;dropTarget=0;points=[[0,0.5],[1,0.5]];portConstraint=eastwest;top=0;left=0;right=0;bottom=0;" vertex="1" parent="6kLEhNdqr8ct7NocNxT4-53">
          <mxGeometry y="91" width="352" height="22" as="geometry" />
        </mxCell>
        <mxCell id="6kLEhNdqr8ct7NocNxT4-70" value="string" style="shape=partialRectangle;connectable=0;fillColor=none;top=0;left=0;bottom=0;right=0;align=left;spacingLeft=2;overflow=hidden;fontSize=11;" vertex="1" parent="6kLEhNdqr8ct7NocNxT4-69">
          <mxGeometry width="36" height="22" as="geometry">
            <mxRectangle width="36" height="22" as="alternateBounds" />
          </mxGeometry>
        </mxCell>
        <mxCell id="6kLEhNdqr8ct7NocNxT4-71" value="academic_qualifications" style="shape=partialRectangle;connectable=0;fillColor=none;top=0;left=0;bottom=0;right=0;align=left;spacingLeft=2;overflow=hidden;fontSize=11;" vertex="1" parent="6kLEhNdqr8ct7NocNxT4-69">
          <mxGeometry x="36" width="138" height="22" as="geometry">
            <mxRectangle width="138" height="22" as="alternateBounds" />
          </mxGeometry>
        </mxCell>
        <mxCell id="6kLEhNdqr8ct7NocNxT4-72" value="" style="shape=partialRectangle;connectable=0;fillColor=none;top=0;left=0;bottom=0;right=0;align=left;spacingLeft=2;overflow=hidden;fontSize=11;" vertex="1" parent="6kLEhNdqr8ct7NocNxT4-69">
          <mxGeometry x="174" width="22" height="22" as="geometry">
            <mxRectangle width="22" height="22" as="alternateBounds" />
          </mxGeometry>
        </mxCell>
        <mxCell id="6kLEhNdqr8ct7NocNxT4-73" value="" style="shape=partialRectangle;connectable=0;fillColor=none;top=0;left=0;bottom=0;right=0;align=left;spacingLeft=2;overflow=hidden;fontSize=11;" vertex="1" parent="6kLEhNdqr8ct7NocNxT4-69">
          <mxGeometry x="196" width="156" height="22" as="geometry">
            <mxRectangle width="156" height="22" as="alternateBounds" />
          </mxGeometry>
        </mxCell>
        <mxCell id="6kLEhNdqr8ct7NocNxT4-74" style="shape=tableRow;horizontal=0;startSize=0;swimlaneHead=0;swimlaneBody=0;fillColor=none;collapsible=0;dropTarget=0;points=[[0,0.5],[1,0.5]];portConstraint=eastwest;top=0;left=0;right=0;bottom=0;" vertex="1" parent="6kLEhNdqr8ct7NocNxT4-53">
          <mxGeometry y="113" width="352" height="22" as="geometry" />
        </mxCell>
        <mxCell id="6kLEhNdqr8ct7NocNxT4-75" value="string" style="shape=partialRectangle;connectable=0;fillColor=none;top=0;left=0;bottom=0;right=0;align=left;spacingLeft=2;overflow=hidden;fontSize=11;" vertex="1" parent="6kLEhNdqr8ct7NocNxT4-74">
          <mxGeometry width="36" height="22" as="geometry">
            <mxRectangle width="36" height="22" as="alternateBounds" />
          </mxGeometry>
        </mxCell>
        <mxCell id="6kLEhNdqr8ct7NocNxT4-76" value="areas_of_expertise" style="shape=partialRectangle;connectable=0;fillColor=none;top=0;left=0;bottom=0;right=0;align=left;spacingLeft=2;overflow=hidden;fontSize=11;" vertex="1" parent="6kLEhNdqr8ct7NocNxT4-74">
          <mxGeometry x="36" width="138" height="22" as="geometry">
            <mxRectangle width="138" height="22" as="alternateBounds" />
          </mxGeometry>
        </mxCell>
        <mxCell id="6kLEhNdqr8ct7NocNxT4-77" value="" style="shape=partialRectangle;connectable=0;fillColor=none;top=0;left=0;bottom=0;right=0;align=left;spacingLeft=2;overflow=hidden;fontSize=11;" vertex="1" parent="6kLEhNdqr8ct7NocNxT4-74">
          <mxGeometry x="174" width="22" height="22" as="geometry">
            <mxRectangle width="22" height="22" as="alternateBounds" />
          </mxGeometry>
        </mxCell>
        <mxCell id="6kLEhNdqr8ct7NocNxT4-78" value="" style="shape=partialRectangle;connectable=0;fillColor=none;top=0;left=0;bottom=0;right=0;align=left;spacingLeft=2;overflow=hidden;fontSize=11;" vertex="1" parent="6kLEhNdqr8ct7NocNxT4-74">
          <mxGeometry x="196" width="156" height="22" as="geometry">
            <mxRectangle width="156" height="22" as="alternateBounds" />
          </mxGeometry>
        </mxCell>
        <mxCell id="6kLEhNdqr8ct7NocNxT4-79" style="shape=tableRow;horizontal=0;startSize=0;swimlaneHead=0;swimlaneBody=0;fillColor=none;collapsible=0;dropTarget=0;points=[[0,0.5],[1,0.5]];portConstraint=eastwest;top=0;left=0;right=0;bottom=0;" vertex="1" parent="6kLEhNdqr8ct7NocNxT4-53">
          <mxGeometry y="135" width="352" height="22" as="geometry" />
        </mxCell>
        <mxCell id="6kLEhNdqr8ct7NocNxT4-80" value="int" style="shape=partialRectangle;connectable=0;fillColor=none;top=0;left=0;bottom=0;right=0;align=left;spacingLeft=2;overflow=hidden;fontSize=11;" vertex="1" parent="6kLEhNdqr8ct7NocNxT4-79">
          <mxGeometry width="36" height="22" as="geometry">
            <mxRectangle width="36" height="22" as="alternateBounds" />
          </mxGeometry>
        </mxCell>
        <mxCell id="6kLEhNdqr8ct7NocNxT4-81" value="course_load" style="shape=partialRectangle;connectable=0;fillColor=none;top=0;left=0;bottom=0;right=0;align=left;spacingLeft=2;overflow=hidden;fontSize=11;" vertex="1" parent="6kLEhNdqr8ct7NocNxT4-79">
          <mxGeometry x="36" width="138" height="22" as="geometry">
            <mxRectangle width="138" height="22" as="alternateBounds" />
          </mxGeometry>
        </mxCell>
        <mxCell id="6kLEhNdqr8ct7NocNxT4-82" value="" style="shape=partialRectangle;connectable=0;fillColor=none;top=0;left=0;bottom=0;right=0;align=left;spacingLeft=2;overflow=hidden;fontSize=11;" vertex="1" parent="6kLEhNdqr8ct7NocNxT4-79">
          <mxGeometry x="174" width="22" height="22" as="geometry">
            <mxRectangle width="22" height="22" as="alternateBounds" />
          </mxGeometry>
        </mxCell>
        <mxCell id="6kLEhNdqr8ct7NocNxT4-83" value="" style="shape=partialRectangle;connectable=0;fillColor=none;top=0;left=0;bottom=0;right=0;align=left;spacingLeft=2;overflow=hidden;fontSize=11;" vertex="1" parent="6kLEhNdqr8ct7NocNxT4-79">
          <mxGeometry x="196" width="156" height="22" as="geometry">
            <mxRectangle width="156" height="22" as="alternateBounds" />
          </mxGeometry>
        </mxCell>
        <mxCell id="6kLEhNdqr8ct7NocNxT4-84" style="shape=tableRow;horizontal=0;startSize=0;swimlaneHead=0;swimlaneBody=0;fillColor=none;collapsible=0;dropTarget=0;points=[[0,0.5],[1,0.5]];portConstraint=eastwest;top=0;left=0;right=0;bottom=0;" vertex="1" parent="6kLEhNdqr8ct7NocNxT4-53">
          <mxGeometry y="157" width="352" height="22" as="geometry" />
        </mxCell>
        <mxCell id="6kLEhNdqr8ct7NocNxT4-85" value="string" style="shape=partialRectangle;connectable=0;fillColor=none;top=0;left=0;bottom=0;right=0;align=left;spacingLeft=2;overflow=hidden;fontSize=11;" vertex="1" parent="6kLEhNdqr8ct7NocNxT4-84">
          <mxGeometry width="36" height="22" as="geometry">
            <mxRectangle width="36" height="22" as="alternateBounds" />
          </mxGeometry>
        </mxCell>
        <mxCell id="6kLEhNdqr8ct7NocNxT4-86" value="research_interests" style="shape=partialRectangle;connectable=0;fillColor=none;top=0;left=0;bottom=0;right=0;align=left;spacingLeft=2;overflow=hidden;fontSize=11;" vertex="1" parent="6kLEhNdqr8ct7NocNxT4-84">
          <mxGeometry x="36" width="138" height="22" as="geometry">
            <mxRectangle width="138" height="22" as="alternateBounds" />
          </mxGeometry>
        </mxCell>
        <mxCell id="6kLEhNdqr8ct7NocNxT4-87" value="" style="shape=partialRectangle;connectable=0;fillColor=none;top=0;left=0;bottom=0;right=0;align=left;spacingLeft=2;overflow=hidden;fontSize=11;" vertex="1" parent="6kLEhNdqr8ct7NocNxT4-84">
          <mxGeometry x="174" width="22" height="22" as="geometry">
            <mxRectangle width="22" height="22" as="alternateBounds" />
          </mxGeometry>
        </mxCell>
        <mxCell id="6kLEhNdqr8ct7NocNxT4-88" value="" style="shape=partialRectangle;connectable=0;fillColor=none;top=0;left=0;bottom=0;right=0;align=left;spacingLeft=2;overflow=hidden;fontSize=11;" vertex="1" parent="6kLEhNdqr8ct7NocNxT4-84">
          <mxGeometry x="196" width="156" height="22" as="geometry">
            <mxRectangle width="156" height="22" as="alternateBounds" />
          </mxGeometry>
        </mxCell>
        <mxCell id="6kLEhNdqr8ct7NocNxT4-89" style="shape=tableRow;horizontal=0;startSize=0;swimlaneHead=0;swimlaneBody=0;fillColor=none;collapsible=0;dropTarget=0;points=[[0,0.5],[1,0.5]];portConstraint=eastwest;top=0;left=0;right=0;bottom=0;" vertex="1" parent="6kLEhNdqr8ct7NocNxT4-53">
          <mxGeometry y="179" width="352" height="22" as="geometry" />
        </mxCell>
        <mxCell id="6kLEhNdqr8ct7NocNxT4-90" value="string" style="shape=partialRectangle;connectable=0;fillColor=none;top=0;left=0;bottom=0;right=0;align=left;spacingLeft=2;overflow=hidden;fontSize=11;" vertex="1" parent="6kLEhNdqr8ct7NocNxT4-89">
          <mxGeometry width="36" height="22" as="geometry">
            <mxRectangle width="36" height="22" as="alternateBounds" />
          </mxGeometry>
        </mxCell>
        <mxCell id="6kLEhNdqr8ct7NocNxT4-91" value="publications" style="shape=partialRectangle;connectable=0;fillColor=none;top=0;left=0;bottom=0;right=0;align=left;spacingLeft=2;overflow=hidden;fontSize=11;" vertex="1" parent="6kLEhNdqr8ct7NocNxT4-89">
          <mxGeometry x="36" width="138" height="22" as="geometry">
            <mxRectangle width="138" height="22" as="alternateBounds" />
          </mxGeometry>
        </mxCell>
        <mxCell id="6kLEhNdqr8ct7NocNxT4-92" value="" style="shape=partialRectangle;connectable=0;fillColor=none;top=0;left=0;bottom=0;right=0;align=left;spacingLeft=2;overflow=hidden;fontSize=11;" vertex="1" parent="6kLEhNdqr8ct7NocNxT4-89">
          <mxGeometry x="174" width="22" height="22" as="geometry">
            <mxRectangle width="22" height="22" as="alternateBounds" />
          </mxGeometry>
        </mxCell>
        <mxCell id="6kLEhNdqr8ct7NocNxT4-93" value="" style="shape=partialRectangle;connectable=0;fillColor=none;top=0;left=0;bottom=0;right=0;align=left;spacingLeft=2;overflow=hidden;fontSize=11;" vertex="1" parent="6kLEhNdqr8ct7NocNxT4-89">
          <mxGeometry x="196" width="156" height="22" as="geometry">
            <mxRectangle width="156" height="22" as="alternateBounds" />
          </mxGeometry>
        </mxCell>
        <mxCell id="6kLEhNdqr8ct7NocNxT4-94" style="shape=tableRow;horizontal=0;startSize=0;swimlaneHead=0;swimlaneBody=0;fillColor=none;collapsible=0;dropTarget=0;points=[[0,0.5],[1,0.5]];portConstraint=eastwest;top=0;left=0;right=0;bottom=0;" vertex="1" parent="6kLEhNdqr8ct7NocNxT4-53">
          <mxGeometry y="201" width="352" height="22" as="geometry" />
        </mxCell>
        <mxCell id="6kLEhNdqr8ct7NocNxT4-95" value="string" style="shape=partialRectangle;connectable=0;fillColor=none;top=0;left=0;bottom=0;right=0;align=left;spacingLeft=2;overflow=hidden;fontSize=11;" vertex="1" parent="6kLEhNdqr8ct7NocNxT4-94">
          <mxGeometry width="36" height="22" as="geometry">
            <mxRectangle width="36" height="22" as="alternateBounds" />
          </mxGeometry>
        </mxCell>
        <mxCell id="6kLEhNdqr8ct7NocNxT4-96" value="contact_info" style="shape=partialRectangle;connectable=0;fillColor=none;top=0;left=0;bottom=0;right=0;align=left;spacingLeft=2;overflow=hidden;fontSize=11;" vertex="1" parent="6kLEhNdqr8ct7NocNxT4-94">
          <mxGeometry x="36" width="138" height="22" as="geometry">
            <mxRectangle width="138" height="22" as="alternateBounds" />
          </mxGeometry>
        </mxCell>
        <mxCell id="6kLEhNdqr8ct7NocNxT4-97" value="" style="shape=partialRectangle;connectable=0;fillColor=none;top=0;left=0;bottom=0;right=0;align=left;spacingLeft=2;overflow=hidden;fontSize=11;" vertex="1" parent="6kLEhNdqr8ct7NocNxT4-94">
          <mxGeometry x="174" width="22" height="22" as="geometry">
            <mxRectangle width="22" height="22" as="alternateBounds" />
          </mxGeometry>
        </mxCell>
        <mxCell id="6kLEhNdqr8ct7NocNxT4-98" value="" style="shape=partialRectangle;connectable=0;fillColor=none;top=0;left=0;bottom=0;right=0;align=left;spacingLeft=2;overflow=hidden;fontSize=11;" vertex="1" parent="6kLEhNdqr8ct7NocNxT4-94">
          <mxGeometry x="196" width="156" height="22" as="geometry">
            <mxRectangle width="156" height="22" as="alternateBounds" />
          </mxGeometry>
        </mxCell>
        <mxCell id="6kLEhNdqr8ct7NocNxT4-99" value="NONACADEMICSTAFF" style="shape=table;startSize=25;container=1;collapsible=0;childLayout=tableLayout;fixedRows=1;rowLines=1;fontStyle=1;align=center;resizeLast=1;" vertex="1" parent="1">
          <mxGeometry x="904" y="243" width="322" height="201" as="geometry" />
        </mxCell>
        <mxCell id="6kLEhNdqr8ct7NocNxT4-100" style="shape=tableRow;horizontal=0;startSize=0;swimlaneHead=0;swimlaneBody=0;fillColor=none;collapsible=0;dropTarget=0;points=[[0,0.5],[1,0.5]];portConstraint=eastwest;top=0;left=0;right=0;bottom=0;" vertex="1" parent="6kLEhNdqr8ct7NocNxT4-99">
          <mxGeometry y="25" width="322" height="22" as="geometry" />
        </mxCell>
        <mxCell id="6kLEhNdqr8ct7NocNxT4-101" value="int" style="shape=partialRectangle;connectable=0;fillColor=none;top=0;left=0;bottom=0;right=0;align=left;spacingLeft=2;overflow=hidden;fontSize=11;" vertex="1" parent="6kLEhNdqr8ct7NocNxT4-100">
          <mxGeometry width="42" height="22" as="geometry">
            <mxRectangle width="42" height="22" as="alternateBounds" />
          </mxGeometry>
        </mxCell>
        <mxCell id="6kLEhNdqr8ct7NocNxT4-102" value="staff_id" style="shape=partialRectangle;connectable=0;fillColor=none;top=0;left=0;bottom=0;right=0;align=left;spacingLeft=2;overflow=hidden;fontSize=11;" vertex="1" parent="6kLEhNdqr8ct7NocNxT4-100">
          <mxGeometry x="42" width="102" height="22" as="geometry">
            <mxRectangle width="102" height="22" as="alternateBounds" />
          </mxGeometry>
        </mxCell>
        <mxCell id="6kLEhNdqr8ct7NocNxT4-103" value="PK" style="shape=partialRectangle;connectable=0;fillColor=none;top=0;left=0;bottom=0;right=0;align=left;spacingLeft=2;overflow=hidden;fontSize=11;" vertex="1" parent="6kLEhNdqr8ct7NocNxT4-100">
          <mxGeometry x="144" width="22" height="22" as="geometry">
            <mxRectangle width="22" height="22" as="alternateBounds" />
          </mxGeometry>
        </mxCell>
        <mxCell id="6kLEhNdqr8ct7NocNxT4-104" value="Primary Key" style="shape=partialRectangle;connectable=0;fillColor=none;top=0;left=0;bottom=0;right=0;align=left;spacingLeft=2;overflow=hidden;fontSize=11;" vertex="1" parent="6kLEhNdqr8ct7NocNxT4-100">
          <mxGeometry x="166" width="156" height="22" as="geometry">
            <mxRectangle width="156" height="22" as="alternateBounds" />
          </mxGeometry>
        </mxCell>
        <mxCell id="6kLEhNdqr8ct7NocNxT4-105" style="shape=tableRow;horizontal=0;startSize=0;swimlaneHead=0;swimlaneBody=0;fillColor=none;collapsible=0;dropTarget=0;points=[[0,0.5],[1,0.5]];portConstraint=eastwest;top=0;left=0;right=0;bottom=0;" vertex="1" parent="6kLEhNdqr8ct7NocNxT4-99">
          <mxGeometry y="47" width="322" height="22" as="geometry" />
        </mxCell>
        <mxCell id="6kLEhNdqr8ct7NocNxT4-106" value="string" style="shape=partialRectangle;connectable=0;fillColor=none;top=0;left=0;bottom=0;right=0;align=left;spacingLeft=2;overflow=hidden;fontSize=11;" vertex="1" parent="6kLEhNdqr8ct7NocNxT4-105">
          <mxGeometry width="42" height="22" as="geometry">
            <mxRectangle width="42" height="22" as="alternateBounds" />
          </mxGeometry>
        </mxCell>
        <mxCell id="6kLEhNdqr8ct7NocNxT4-107" value="name" style="shape=partialRectangle;connectable=0;fillColor=none;top=0;left=0;bottom=0;right=0;align=left;spacingLeft=2;overflow=hidden;fontSize=11;" vertex="1" parent="6kLEhNdqr8ct7NocNxT4-105">
          <mxGeometry x="42" width="102" height="22" as="geometry">
            <mxRectangle width="102" height="22" as="alternateBounds" />
          </mxGeometry>
        </mxCell>
        <mxCell id="6kLEhNdqr8ct7NocNxT4-108" value="" style="shape=partialRectangle;connectable=0;fillColor=none;top=0;left=0;bottom=0;right=0;align=left;spacingLeft=2;overflow=hidden;fontSize=11;" vertex="1" parent="6kLEhNdqr8ct7NocNxT4-105">
          <mxGeometry x="144" width="22" height="22" as="geometry">
            <mxRectangle width="22" height="22" as="alternateBounds" />
          </mxGeometry>
        </mxCell>
        <mxCell id="6kLEhNdqr8ct7NocNxT4-109" value="" style="shape=partialRectangle;connectable=0;fillColor=none;top=0;left=0;bottom=0;right=0;align=left;spacingLeft=2;overflow=hidden;fontSize=11;" vertex="1" parent="6kLEhNdqr8ct7NocNxT4-105">
          <mxGeometry x="166" width="156" height="22" as="geometry">
            <mxRectangle width="156" height="22" as="alternateBounds" />
          </mxGeometry>
        </mxCell>
        <mxCell id="6kLEhNdqr8ct7NocNxT4-110" style="shape=tableRow;horizontal=0;startSize=0;swimlaneHead=0;swimlaneBody=0;fillColor=none;collapsible=0;dropTarget=0;points=[[0,0.5],[1,0.5]];portConstraint=eastwest;top=0;left=0;right=0;bottom=0;" vertex="1" parent="6kLEhNdqr8ct7NocNxT4-99">
          <mxGeometry y="69" width="322" height="22" as="geometry" />
        </mxCell>
        <mxCell id="6kLEhNdqr8ct7NocNxT4-111" value="string" style="shape=partialRectangle;connectable=0;fillColor=none;top=0;left=0;bottom=0;right=0;align=left;spacingLeft=2;overflow=hidden;fontSize=11;" vertex="1" parent="6kLEhNdqr8ct7NocNxT4-110">
          <mxGeometry width="42" height="22" as="geometry">
            <mxRectangle width="42" height="22" as="alternateBounds" />
          </mxGeometry>
        </mxCell>
        <mxCell id="6kLEhNdqr8ct7NocNxT4-112" value="job_title" style="shape=partialRectangle;connectable=0;fillColor=none;top=0;left=0;bottom=0;right=0;align=left;spacingLeft=2;overflow=hidden;fontSize=11;" vertex="1" parent="6kLEhNdqr8ct7NocNxT4-110">
          <mxGeometry x="42" width="102" height="22" as="geometry">
            <mxRectangle width="102" height="22" as="alternateBounds" />
          </mxGeometry>
        </mxCell>
        <mxCell id="6kLEhNdqr8ct7NocNxT4-113" value="" style="shape=partialRectangle;connectable=0;fillColor=none;top=0;left=0;bottom=0;right=0;align=left;spacingLeft=2;overflow=hidden;fontSize=11;" vertex="1" parent="6kLEhNdqr8ct7NocNxT4-110">
          <mxGeometry x="144" width="22" height="22" as="geometry">
            <mxRectangle width="22" height="22" as="alternateBounds" />
          </mxGeometry>
        </mxCell>
        <mxCell id="6kLEhNdqr8ct7NocNxT4-114" value="" style="shape=partialRectangle;connectable=0;fillColor=none;top=0;left=0;bottom=0;right=0;align=left;spacingLeft=2;overflow=hidden;fontSize=11;" vertex="1" parent="6kLEhNdqr8ct7NocNxT4-110">
          <mxGeometry x="166" width="156" height="22" as="geometry">
            <mxRectangle width="156" height="22" as="alternateBounds" />
          </mxGeometry>
        </mxCell>
        <mxCell id="6kLEhNdqr8ct7NocNxT4-115" style="shape=tableRow;horizontal=0;startSize=0;swimlaneHead=0;swimlaneBody=0;fillColor=none;collapsible=0;dropTarget=0;points=[[0,0.5],[1,0.5]];portConstraint=eastwest;top=0;left=0;right=0;bottom=0;" vertex="1" parent="6kLEhNdqr8ct7NocNxT4-99">
          <mxGeometry y="91" width="322" height="22" as="geometry" />
        </mxCell>
        <mxCell id="6kLEhNdqr8ct7NocNxT4-116" value="int" style="shape=partialRectangle;connectable=0;fillColor=none;top=0;left=0;bottom=0;right=0;align=left;spacingLeft=2;overflow=hidden;fontSize=11;" vertex="1" parent="6kLEhNdqr8ct7NocNxT4-115">
          <mxGeometry width="42" height="22" as="geometry">
            <mxRectangle width="42" height="22" as="alternateBounds" />
          </mxGeometry>
        </mxCell>
        <mxCell id="6kLEhNdqr8ct7NocNxT4-117" value="department_id" style="shape=partialRectangle;connectable=0;fillColor=none;top=0;left=0;bottom=0;right=0;align=left;spacingLeft=2;overflow=hidden;fontSize=11;" vertex="1" parent="6kLEhNdqr8ct7NocNxT4-115">
          <mxGeometry x="42" width="102" height="22" as="geometry">
            <mxRectangle width="102" height="22" as="alternateBounds" />
          </mxGeometry>
        </mxCell>
        <mxCell id="6kLEhNdqr8ct7NocNxT4-118" value="FK" style="shape=partialRectangle;connectable=0;fillColor=none;top=0;left=0;bottom=0;right=0;align=left;spacingLeft=2;overflow=hidden;fontSize=11;" vertex="1" parent="6kLEhNdqr8ct7NocNxT4-115">
          <mxGeometry x="144" width="22" height="22" as="geometry">
            <mxRectangle width="22" height="22" as="alternateBounds" />
          </mxGeometry>
        </mxCell>
        <mxCell id="6kLEhNdqr8ct7NocNxT4-119" value="Foreign Key to Departments" style="shape=partialRectangle;connectable=0;fillColor=none;top=0;left=0;bottom=0;right=0;align=left;spacingLeft=2;overflow=hidden;fontSize=11;" vertex="1" parent="6kLEhNdqr8ct7NocNxT4-115">
          <mxGeometry x="166" width="156" height="22" as="geometry">
            <mxRectangle width="156" height="22" as="alternateBounds" />
          </mxGeometry>
        </mxCell>
        <mxCell id="6kLEhNdqr8ct7NocNxT4-120" style="shape=tableRow;horizontal=0;startSize=0;swimlaneHead=0;swimlaneBody=0;fillColor=none;collapsible=0;dropTarget=0;points=[[0,0.5],[1,0.5]];portConstraint=eastwest;top=0;left=0;right=0;bottom=0;" vertex="1" parent="6kLEhNdqr8ct7NocNxT4-99">
          <mxGeometry y="113" width="322" height="22" as="geometry" />
        </mxCell>
        <mxCell id="6kLEhNdqr8ct7NocNxT4-121" value="string" style="shape=partialRectangle;connectable=0;fillColor=none;top=0;left=0;bottom=0;right=0;align=left;spacingLeft=2;overflow=hidden;fontSize=11;" vertex="1" parent="6kLEhNdqr8ct7NocNxT4-120">
          <mxGeometry width="42" height="22" as="geometry">
            <mxRectangle width="42" height="22" as="alternateBounds" />
          </mxGeometry>
        </mxCell>
        <mxCell id="6kLEhNdqr8ct7NocNxT4-122" value="employment_type" style="shape=partialRectangle;connectable=0;fillColor=none;top=0;left=0;bottom=0;right=0;align=left;spacingLeft=2;overflow=hidden;fontSize=11;" vertex="1" parent="6kLEhNdqr8ct7NocNxT4-120">
          <mxGeometry x="42" width="102" height="22" as="geometry">
            <mxRectangle width="102" height="22" as="alternateBounds" />
          </mxGeometry>
        </mxCell>
        <mxCell id="6kLEhNdqr8ct7NocNxT4-123" value="" style="shape=partialRectangle;connectable=0;fillColor=none;top=0;left=0;bottom=0;right=0;align=left;spacingLeft=2;overflow=hidden;fontSize=11;" vertex="1" parent="6kLEhNdqr8ct7NocNxT4-120">
          <mxGeometry x="144" width="22" height="22" as="geometry">
            <mxRectangle width="22" height="22" as="alternateBounds" />
          </mxGeometry>
        </mxCell>
        <mxCell id="6kLEhNdqr8ct7NocNxT4-124" value="" style="shape=partialRectangle;connectable=0;fillColor=none;top=0;left=0;bottom=0;right=0;align=left;spacingLeft=2;overflow=hidden;fontSize=11;" vertex="1" parent="6kLEhNdqr8ct7NocNxT4-120">
          <mxGeometry x="166" width="156" height="22" as="geometry">
            <mxRectangle width="156" height="22" as="alternateBounds" />
          </mxGeometry>
        </mxCell>
        <mxCell id="6kLEhNdqr8ct7NocNxT4-125" style="shape=tableRow;horizontal=0;startSize=0;swimlaneHead=0;swimlaneBody=0;fillColor=none;collapsible=0;dropTarget=0;points=[[0,0.5],[1,0.5]];portConstraint=eastwest;top=0;left=0;right=0;bottom=0;" vertex="1" parent="6kLEhNdqr8ct7NocNxT4-99">
          <mxGeometry y="135" width="322" height="22" as="geometry" />
        </mxCell>
        <mxCell id="6kLEhNdqr8ct7NocNxT4-126" value="string" style="shape=partialRectangle;connectable=0;fillColor=none;top=0;left=0;bottom=0;right=0;align=left;spacingLeft=2;overflow=hidden;fontSize=11;" vertex="1" parent="6kLEhNdqr8ct7NocNxT4-125">
          <mxGeometry width="42" height="22" as="geometry">
            <mxRectangle width="42" height="22" as="alternateBounds" />
          </mxGeometry>
        </mxCell>
        <mxCell id="6kLEhNdqr8ct7NocNxT4-127" value="contract_details" style="shape=partialRectangle;connectable=0;fillColor=none;top=0;left=0;bottom=0;right=0;align=left;spacingLeft=2;overflow=hidden;fontSize=11;" vertex="1" parent="6kLEhNdqr8ct7NocNxT4-125">
          <mxGeometry x="42" width="102" height="22" as="geometry">
            <mxRectangle width="102" height="22" as="alternateBounds" />
          </mxGeometry>
        </mxCell>
        <mxCell id="6kLEhNdqr8ct7NocNxT4-128" value="" style="shape=partialRectangle;connectable=0;fillColor=none;top=0;left=0;bottom=0;right=0;align=left;spacingLeft=2;overflow=hidden;fontSize=11;" vertex="1" parent="6kLEhNdqr8ct7NocNxT4-125">
          <mxGeometry x="144" width="22" height="22" as="geometry">
            <mxRectangle width="22" height="22" as="alternateBounds" />
          </mxGeometry>
        </mxCell>
        <mxCell id="6kLEhNdqr8ct7NocNxT4-129" value="" style="shape=partialRectangle;connectable=0;fillColor=none;top=0;left=0;bottom=0;right=0;align=left;spacingLeft=2;overflow=hidden;fontSize=11;" vertex="1" parent="6kLEhNdqr8ct7NocNxT4-125">
          <mxGeometry x="166" width="156" height="22" as="geometry">
            <mxRectangle width="156" height="22" as="alternateBounds" />
          </mxGeometry>
        </mxCell>
        <mxCell id="6kLEhNdqr8ct7NocNxT4-130" style="shape=tableRow;horizontal=0;startSize=0;swimlaneHead=0;swimlaneBody=0;fillColor=none;collapsible=0;dropTarget=0;points=[[0,0.5],[1,0.5]];portConstraint=eastwest;top=0;left=0;right=0;bottom=0;" vertex="1" parent="6kLEhNdqr8ct7NocNxT4-99">
          <mxGeometry y="157" width="322" height="22" as="geometry" />
        </mxCell>
        <mxCell id="6kLEhNdqr8ct7NocNxT4-131" value="decimal" style="shape=partialRectangle;connectable=0;fillColor=none;top=0;left=0;bottom=0;right=0;align=left;spacingLeft=2;overflow=hidden;fontSize=11;" vertex="1" parent="6kLEhNdqr8ct7NocNxT4-130">
          <mxGeometry width="42" height="22" as="geometry">
            <mxRectangle width="42" height="22" as="alternateBounds" />
          </mxGeometry>
        </mxCell>
        <mxCell id="6kLEhNdqr8ct7NocNxT4-132" value="salary_info" style="shape=partialRectangle;connectable=0;fillColor=none;top=0;left=0;bottom=0;right=0;align=left;spacingLeft=2;overflow=hidden;fontSize=11;" vertex="1" parent="6kLEhNdqr8ct7NocNxT4-130">
          <mxGeometry x="42" width="102" height="22" as="geometry">
            <mxRectangle width="102" height="22" as="alternateBounds" />
          </mxGeometry>
        </mxCell>
        <mxCell id="6kLEhNdqr8ct7NocNxT4-133" value="" style="shape=partialRectangle;connectable=0;fillColor=none;top=0;left=0;bottom=0;right=0;align=left;spacingLeft=2;overflow=hidden;fontSize=11;" vertex="1" parent="6kLEhNdqr8ct7NocNxT4-130">
          <mxGeometry x="144" width="22" height="22" as="geometry">
            <mxRectangle width="22" height="22" as="alternateBounds" />
          </mxGeometry>
        </mxCell>
        <mxCell id="6kLEhNdqr8ct7NocNxT4-134" value="" style="shape=partialRectangle;connectable=0;fillColor=none;top=0;left=0;bottom=0;right=0;align=left;spacingLeft=2;overflow=hidden;fontSize=11;" vertex="1" parent="6kLEhNdqr8ct7NocNxT4-130">
          <mxGeometry x="166" width="156" height="22" as="geometry">
            <mxRectangle width="156" height="22" as="alternateBounds" />
          </mxGeometry>
        </mxCell>
        <mxCell id="6kLEhNdqr8ct7NocNxT4-135" style="shape=tableRow;horizontal=0;startSize=0;swimlaneHead=0;swimlaneBody=0;fillColor=none;collapsible=0;dropTarget=0;points=[[0,0.5],[1,0.5]];portConstraint=eastwest;top=0;left=0;right=0;bottom=0;" vertex="1" parent="6kLEhNdqr8ct7NocNxT4-99">
          <mxGeometry y="179" width="322" height="22" as="geometry" />
        </mxCell>
        <mxCell id="6kLEhNdqr8ct7NocNxT4-136" value="string" style="shape=partialRectangle;connectable=0;fillColor=none;top=0;left=0;bottom=0;right=0;align=left;spacingLeft=2;overflow=hidden;fontSize=11;" vertex="1" parent="6kLEhNdqr8ct7NocNxT4-135">
          <mxGeometry width="42" height="22" as="geometry">
            <mxRectangle width="42" height="22" as="alternateBounds" />
          </mxGeometry>
        </mxCell>
        <mxCell id="6kLEhNdqr8ct7NocNxT4-137" value="emergency_contact" style="shape=partialRectangle;connectable=0;fillColor=none;top=0;left=0;bottom=0;right=0;align=left;spacingLeft=2;overflow=hidden;fontSize=11;" vertex="1" parent="6kLEhNdqr8ct7NocNxT4-135">
          <mxGeometry x="42" width="102" height="22" as="geometry">
            <mxRectangle width="102" height="22" as="alternateBounds" />
          </mxGeometry>
        </mxCell>
        <mxCell id="6kLEhNdqr8ct7NocNxT4-138" value="" style="shape=partialRectangle;connectable=0;fillColor=none;top=0;left=0;bottom=0;right=0;align=left;spacingLeft=2;overflow=hidden;fontSize=11;" vertex="1" parent="6kLEhNdqr8ct7NocNxT4-135">
          <mxGeometry x="144" width="22" height="22" as="geometry">
            <mxRectangle width="22" height="22" as="alternateBounds" />
          </mxGeometry>
        </mxCell>
        <mxCell id="6kLEhNdqr8ct7NocNxT4-139" value="" style="shape=partialRectangle;connectable=0;fillColor=none;top=0;left=0;bottom=0;right=0;align=left;spacingLeft=2;overflow=hidden;fontSize=11;" vertex="1" parent="6kLEhNdqr8ct7NocNxT4-135">
          <mxGeometry x="166" width="156" height="22" as="geometry">
            <mxRectangle width="156" height="22" as="alternateBounds" />
          </mxGeometry>
        </mxCell>
        <mxCell id="6kLEhNdqr8ct7NocNxT4-140" value="COURSES" style="shape=table;startSize=25;container=1;collapsible=0;childLayout=tableLayout;fixedRows=1;rowLines=1;fontStyle=1;align=center;resizeLast=1;" vertex="1" parent="1">
          <mxGeometry x="60" y="232" width="292" height="223" as="geometry" />
        </mxCell>
        <mxCell id="6kLEhNdqr8ct7NocNxT4-141" style="shape=tableRow;horizontal=0;startSize=0;swimlaneHead=0;swimlaneBody=0;fillColor=none;collapsible=0;dropTarget=0;points=[[0,0.5],[1,0.5]];portConstraint=eastwest;top=0;left=0;right=0;bottom=0;" vertex="1" parent="6kLEhNdqr8ct7NocNxT4-140">
          <mxGeometry y="25" width="292" height="22" as="geometry" />
        </mxCell>
        <mxCell id="6kLEhNdqr8ct7NocNxT4-142" value="string" style="shape=partialRectangle;connectable=0;fillColor=none;top=0;left=0;bottom=0;right=0;align=left;spacingLeft=2;overflow=hidden;fontSize=11;" vertex="1" parent="6kLEhNdqr8ct7NocNxT4-141">
          <mxGeometry width="36" height="22" as="geometry">
            <mxRectangle width="36" height="22" as="alternateBounds" />
          </mxGeometry>
        </mxCell>
        <mxCell id="6kLEhNdqr8ct7NocNxT4-143" value="course_code" style="shape=partialRectangle;connectable=0;fillColor=none;top=0;left=0;bottom=0;right=0;align=left;spacingLeft=2;overflow=hidden;fontSize=11;" vertex="1" parent="6kLEhNdqr8ct7NocNxT4-141">
          <mxGeometry x="36" width="78" height="22" as="geometry">
            <mxRectangle width="78" height="22" as="alternateBounds" />
          </mxGeometry>
        </mxCell>
        <mxCell id="6kLEhNdqr8ct7NocNxT4-144" value="PK" style="shape=partialRectangle;connectable=0;fillColor=none;top=0;left=0;bottom=0;right=0;align=left;spacingLeft=2;overflow=hidden;fontSize=11;" vertex="1" parent="6kLEhNdqr8ct7NocNxT4-141">
          <mxGeometry x="114" width="22" height="22" as="geometry">
            <mxRectangle width="22" height="22" as="alternateBounds" />
          </mxGeometry>
        </mxCell>
        <mxCell id="6kLEhNdqr8ct7NocNxT4-145" value="Primary Key" style="shape=partialRectangle;connectable=0;fillColor=none;top=0;left=0;bottom=0;right=0;align=left;spacingLeft=2;overflow=hidden;fontSize=11;" vertex="1" parent="6kLEhNdqr8ct7NocNxT4-141">
          <mxGeometry x="136" width="156" height="22" as="geometry">
            <mxRectangle width="156" height="22" as="alternateBounds" />
          </mxGeometry>
        </mxCell>
        <mxCell id="6kLEhNdqr8ct7NocNxT4-146" style="shape=tableRow;horizontal=0;startSize=0;swimlaneHead=0;swimlaneBody=0;fillColor=none;collapsible=0;dropTarget=0;points=[[0,0.5],[1,0.5]];portConstraint=eastwest;top=0;left=0;right=0;bottom=0;" vertex="1" parent="6kLEhNdqr8ct7NocNxT4-140">
          <mxGeometry y="47" width="292" height="22" as="geometry" />
        </mxCell>
        <mxCell id="6kLEhNdqr8ct7NocNxT4-147" value="string" style="shape=partialRectangle;connectable=0;fillColor=none;top=0;left=0;bottom=0;right=0;align=left;spacingLeft=2;overflow=hidden;fontSize=11;" vertex="1" parent="6kLEhNdqr8ct7NocNxT4-146">
          <mxGeometry width="36" height="22" as="geometry">
            <mxRectangle width="36" height="22" as="alternateBounds" />
          </mxGeometry>
        </mxCell>
        <mxCell id="6kLEhNdqr8ct7NocNxT4-148" value="course_name" style="shape=partialRectangle;connectable=0;fillColor=none;top=0;left=0;bottom=0;right=0;align=left;spacingLeft=2;overflow=hidden;fontSize=11;" vertex="1" parent="6kLEhNdqr8ct7NocNxT4-146">
          <mxGeometry x="36" width="78" height="22" as="geometry">
            <mxRectangle width="78" height="22" as="alternateBounds" />
          </mxGeometry>
        </mxCell>
        <mxCell id="6kLEhNdqr8ct7NocNxT4-149" value="" style="shape=partialRectangle;connectable=0;fillColor=none;top=0;left=0;bottom=0;right=0;align=left;spacingLeft=2;overflow=hidden;fontSize=11;" vertex="1" parent="6kLEhNdqr8ct7NocNxT4-146">
          <mxGeometry x="114" width="22" height="22" as="geometry">
            <mxRectangle width="22" height="22" as="alternateBounds" />
          </mxGeometry>
        </mxCell>
        <mxCell id="6kLEhNdqr8ct7NocNxT4-150" value="" style="shape=partialRectangle;connectable=0;fillColor=none;top=0;left=0;bottom=0;right=0;align=left;spacingLeft=2;overflow=hidden;fontSize=11;" vertex="1" parent="6kLEhNdqr8ct7NocNxT4-146">
          <mxGeometry x="136" width="156" height="22" as="geometry">
            <mxRectangle width="156" height="22" as="alternateBounds" />
          </mxGeometry>
        </mxCell>
        <mxCell id="6kLEhNdqr8ct7NocNxT4-151" style="shape=tableRow;horizontal=0;startSize=0;swimlaneHead=0;swimlaneBody=0;fillColor=none;collapsible=0;dropTarget=0;points=[[0,0.5],[1,0.5]];portConstraint=eastwest;top=0;left=0;right=0;bottom=0;" vertex="1" parent="6kLEhNdqr8ct7NocNxT4-140">
          <mxGeometry y="69" width="292" height="22" as="geometry" />
        </mxCell>
        <mxCell id="6kLEhNdqr8ct7NocNxT4-152" value="string" style="shape=partialRectangle;connectable=0;fillColor=none;top=0;left=0;bottom=0;right=0;align=left;spacingLeft=2;overflow=hidden;fontSize=11;" vertex="1" parent="6kLEhNdqr8ct7NocNxT4-151">
          <mxGeometry width="36" height="22" as="geometry">
            <mxRectangle width="36" height="22" as="alternateBounds" />
          </mxGeometry>
        </mxCell>
        <mxCell id="6kLEhNdqr8ct7NocNxT4-153" value="description" style="shape=partialRectangle;connectable=0;fillColor=none;top=0;left=0;bottom=0;right=0;align=left;spacingLeft=2;overflow=hidden;fontSize=11;" vertex="1" parent="6kLEhNdqr8ct7NocNxT4-151">
          <mxGeometry x="36" width="78" height="22" as="geometry">
            <mxRectangle width="78" height="22" as="alternateBounds" />
          </mxGeometry>
        </mxCell>
        <mxCell id="6kLEhNdqr8ct7NocNxT4-154" value="" style="shape=partialRectangle;connectable=0;fillColor=none;top=0;left=0;bottom=0;right=0;align=left;spacingLeft=2;overflow=hidden;fontSize=11;" vertex="1" parent="6kLEhNdqr8ct7NocNxT4-151">
          <mxGeometry x="114" width="22" height="22" as="geometry">
            <mxRectangle width="22" height="22" as="alternateBounds" />
          </mxGeometry>
        </mxCell>
        <mxCell id="6kLEhNdqr8ct7NocNxT4-155" value="" style="shape=partialRectangle;connectable=0;fillColor=none;top=0;left=0;bottom=0;right=0;align=left;spacingLeft=2;overflow=hidden;fontSize=11;" vertex="1" parent="6kLEhNdqr8ct7NocNxT4-151">
          <mxGeometry x="136" width="156" height="22" as="geometry">
            <mxRectangle width="156" height="22" as="alternateBounds" />
          </mxGeometry>
        </mxCell>
        <mxCell id="6kLEhNdqr8ct7NocNxT4-156" style="shape=tableRow;horizontal=0;startSize=0;swimlaneHead=0;swimlaneBody=0;fillColor=none;collapsible=0;dropTarget=0;points=[[0,0.5],[1,0.5]];portConstraint=eastwest;top=0;left=0;right=0;bottom=0;" vertex="1" parent="6kLEhNdqr8ct7NocNxT4-140">
          <mxGeometry y="91" width="292" height="22" as="geometry" />
        </mxCell>
        <mxCell id="6kLEhNdqr8ct7NocNxT4-157" value="int" style="shape=partialRectangle;connectable=0;fillColor=none;top=0;left=0;bottom=0;right=0;align=left;spacingLeft=2;overflow=hidden;fontSize=11;" vertex="1" parent="6kLEhNdqr8ct7NocNxT4-156">
          <mxGeometry width="36" height="22" as="geometry">
            <mxRectangle width="36" height="22" as="alternateBounds" />
          </mxGeometry>
        </mxCell>
        <mxCell id="6kLEhNdqr8ct7NocNxT4-158" value="department_id" style="shape=partialRectangle;connectable=0;fillColor=none;top=0;left=0;bottom=0;right=0;align=left;spacingLeft=2;overflow=hidden;fontSize=11;" vertex="1" parent="6kLEhNdqr8ct7NocNxT4-156">
          <mxGeometry x="36" width="78" height="22" as="geometry">
            <mxRectangle width="78" height="22" as="alternateBounds" />
          </mxGeometry>
        </mxCell>
        <mxCell id="6kLEhNdqr8ct7NocNxT4-159" value="FK" style="shape=partialRectangle;connectable=0;fillColor=none;top=0;left=0;bottom=0;right=0;align=left;spacingLeft=2;overflow=hidden;fontSize=11;" vertex="1" parent="6kLEhNdqr8ct7NocNxT4-156">
          <mxGeometry x="114" width="22" height="22" as="geometry">
            <mxRectangle width="22" height="22" as="alternateBounds" />
          </mxGeometry>
        </mxCell>
        <mxCell id="6kLEhNdqr8ct7NocNxT4-160" value="Foreign Key to Departments" style="shape=partialRectangle;connectable=0;fillColor=none;top=0;left=0;bottom=0;right=0;align=left;spacingLeft=2;overflow=hidden;fontSize=11;" vertex="1" parent="6kLEhNdqr8ct7NocNxT4-156">
          <mxGeometry x="136" width="156" height="22" as="geometry">
            <mxRectangle width="156" height="22" as="alternateBounds" />
          </mxGeometry>
        </mxCell>
        <mxCell id="6kLEhNdqr8ct7NocNxT4-161" style="shape=tableRow;horizontal=0;startSize=0;swimlaneHead=0;swimlaneBody=0;fillColor=none;collapsible=0;dropTarget=0;points=[[0,0.5],[1,0.5]];portConstraint=eastwest;top=0;left=0;right=0;bottom=0;" vertex="1" parent="6kLEhNdqr8ct7NocNxT4-140">
          <mxGeometry y="113" width="292" height="22" as="geometry" />
        </mxCell>
        <mxCell id="6kLEhNdqr8ct7NocNxT4-162" value="string" style="shape=partialRectangle;connectable=0;fillColor=none;top=0;left=0;bottom=0;right=0;align=left;spacingLeft=2;overflow=hidden;fontSize=11;" vertex="1" parent="6kLEhNdqr8ct7NocNxT4-161">
          <mxGeometry width="36" height="22" as="geometry">
            <mxRectangle width="36" height="22" as="alternateBounds" />
          </mxGeometry>
        </mxCell>
        <mxCell id="6kLEhNdqr8ct7NocNxT4-163" value="level" style="shape=partialRectangle;connectable=0;fillColor=none;top=0;left=0;bottom=0;right=0;align=left;spacingLeft=2;overflow=hidden;fontSize=11;" vertex="1" parent="6kLEhNdqr8ct7NocNxT4-161">
          <mxGeometry x="36" width="78" height="22" as="geometry">
            <mxRectangle width="78" height="22" as="alternateBounds" />
          </mxGeometry>
        </mxCell>
        <mxCell id="6kLEhNdqr8ct7NocNxT4-164" value="" style="shape=partialRectangle;connectable=0;fillColor=none;top=0;left=0;bottom=0;right=0;align=left;spacingLeft=2;overflow=hidden;fontSize=11;" vertex="1" parent="6kLEhNdqr8ct7NocNxT4-161">
          <mxGeometry x="114" width="22" height="22" as="geometry">
            <mxRectangle width="22" height="22" as="alternateBounds" />
          </mxGeometry>
        </mxCell>
        <mxCell id="6kLEhNdqr8ct7NocNxT4-165" value="" style="shape=partialRectangle;connectable=0;fillColor=none;top=0;left=0;bottom=0;right=0;align=left;spacingLeft=2;overflow=hidden;fontSize=11;" vertex="1" parent="6kLEhNdqr8ct7NocNxT4-161">
          <mxGeometry x="136" width="156" height="22" as="geometry">
            <mxRectangle width="156" height="22" as="alternateBounds" />
          </mxGeometry>
        </mxCell>
        <mxCell id="6kLEhNdqr8ct7NocNxT4-166" style="shape=tableRow;horizontal=0;startSize=0;swimlaneHead=0;swimlaneBody=0;fillColor=none;collapsible=0;dropTarget=0;points=[[0,0.5],[1,0.5]];portConstraint=eastwest;top=0;left=0;right=0;bottom=0;" vertex="1" parent="6kLEhNdqr8ct7NocNxT4-140">
          <mxGeometry y="135" width="292" height="22" as="geometry" />
        </mxCell>
        <mxCell id="6kLEhNdqr8ct7NocNxT4-167" value="int" style="shape=partialRectangle;connectable=0;fillColor=none;top=0;left=0;bottom=0;right=0;align=left;spacingLeft=2;overflow=hidden;fontSize=11;" vertex="1" parent="6kLEhNdqr8ct7NocNxT4-166">
          <mxGeometry width="36" height="22" as="geometry">
            <mxRectangle width="36" height="22" as="alternateBounds" />
          </mxGeometry>
        </mxCell>
        <mxCell id="6kLEhNdqr8ct7NocNxT4-168" value="credits" style="shape=partialRectangle;connectable=0;fillColor=none;top=0;left=0;bottom=0;right=0;align=left;spacingLeft=2;overflow=hidden;fontSize=11;" vertex="1" parent="6kLEhNdqr8ct7NocNxT4-166">
          <mxGeometry x="36" width="78" height="22" as="geometry">
            <mxRectangle width="78" height="22" as="alternateBounds" />
          </mxGeometry>
        </mxCell>
        <mxCell id="6kLEhNdqr8ct7NocNxT4-169" value="" style="shape=partialRectangle;connectable=0;fillColor=none;top=0;left=0;bottom=0;right=0;align=left;spacingLeft=2;overflow=hidden;fontSize=11;" vertex="1" parent="6kLEhNdqr8ct7NocNxT4-166">
          <mxGeometry x="114" width="22" height="22" as="geometry">
            <mxRectangle width="22" height="22" as="alternateBounds" />
          </mxGeometry>
        </mxCell>
        <mxCell id="6kLEhNdqr8ct7NocNxT4-170" value="" style="shape=partialRectangle;connectable=0;fillColor=none;top=0;left=0;bottom=0;right=0;align=left;spacingLeft=2;overflow=hidden;fontSize=11;" vertex="1" parent="6kLEhNdqr8ct7NocNxT4-166">
          <mxGeometry x="136" width="156" height="22" as="geometry">
            <mxRectangle width="156" height="22" as="alternateBounds" />
          </mxGeometry>
        </mxCell>
        <mxCell id="6kLEhNdqr8ct7NocNxT4-171" style="shape=tableRow;horizontal=0;startSize=0;swimlaneHead=0;swimlaneBody=0;fillColor=none;collapsible=0;dropTarget=0;points=[[0,0.5],[1,0.5]];portConstraint=eastwest;top=0;left=0;right=0;bottom=0;" vertex="1" parent="6kLEhNdqr8ct7NocNxT4-140">
          <mxGeometry y="157" width="292" height="22" as="geometry" />
        </mxCell>
        <mxCell id="6kLEhNdqr8ct7NocNxT4-172" value="string" style="shape=partialRectangle;connectable=0;fillColor=none;top=0;left=0;bottom=0;right=0;align=left;spacingLeft=2;overflow=hidden;fontSize=11;" vertex="1" parent="6kLEhNdqr8ct7NocNxT4-171">
          <mxGeometry width="36" height="22" as="geometry">
            <mxRectangle width="36" height="22" as="alternateBounds" />
          </mxGeometry>
        </mxCell>
        <mxCell id="6kLEhNdqr8ct7NocNxT4-173" value="prerequisites" style="shape=partialRectangle;connectable=0;fillColor=none;top=0;left=0;bottom=0;right=0;align=left;spacingLeft=2;overflow=hidden;fontSize=11;" vertex="1" parent="6kLEhNdqr8ct7NocNxT4-171">
          <mxGeometry x="36" width="78" height="22" as="geometry">
            <mxRectangle width="78" height="22" as="alternateBounds" />
          </mxGeometry>
        </mxCell>
        <mxCell id="6kLEhNdqr8ct7NocNxT4-174" value="" style="shape=partialRectangle;connectable=0;fillColor=none;top=0;left=0;bottom=0;right=0;align=left;spacingLeft=2;overflow=hidden;fontSize=11;" vertex="1" parent="6kLEhNdqr8ct7NocNxT4-171">
          <mxGeometry x="114" width="22" height="22" as="geometry">
            <mxRectangle width="22" height="22" as="alternateBounds" />
          </mxGeometry>
        </mxCell>
        <mxCell id="6kLEhNdqr8ct7NocNxT4-175" value="" style="shape=partialRectangle;connectable=0;fillColor=none;top=0;left=0;bottom=0;right=0;align=left;spacingLeft=2;overflow=hidden;fontSize=11;" vertex="1" parent="6kLEhNdqr8ct7NocNxT4-171">
          <mxGeometry x="136" width="156" height="22" as="geometry">
            <mxRectangle width="156" height="22" as="alternateBounds" />
          </mxGeometry>
        </mxCell>
        <mxCell id="6kLEhNdqr8ct7NocNxT4-176" style="shape=tableRow;horizontal=0;startSize=0;swimlaneHead=0;swimlaneBody=0;fillColor=none;collapsible=0;dropTarget=0;points=[[0,0.5],[1,0.5]];portConstraint=eastwest;top=0;left=0;right=0;bottom=0;" vertex="1" parent="6kLEhNdqr8ct7NocNxT4-140">
          <mxGeometry y="179" width="292" height="22" as="geometry" />
        </mxCell>
        <mxCell id="6kLEhNdqr8ct7NocNxT4-177" value="string" style="shape=partialRectangle;connectable=0;fillColor=none;top=0;left=0;bottom=0;right=0;align=left;spacingLeft=2;overflow=hidden;fontSize=11;" vertex="1" parent="6kLEhNdqr8ct7NocNxT4-176">
          <mxGeometry width="36" height="22" as="geometry">
            <mxRectangle width="36" height="22" as="alternateBounds" />
          </mxGeometry>
        </mxCell>
        <mxCell id="6kLEhNdqr8ct7NocNxT4-178" value="schedule" style="shape=partialRectangle;connectable=0;fillColor=none;top=0;left=0;bottom=0;right=0;align=left;spacingLeft=2;overflow=hidden;fontSize=11;" vertex="1" parent="6kLEhNdqr8ct7NocNxT4-176">
          <mxGeometry x="36" width="78" height="22" as="geometry">
            <mxRectangle width="78" height="22" as="alternateBounds" />
          </mxGeometry>
        </mxCell>
        <mxCell id="6kLEhNdqr8ct7NocNxT4-179" value="" style="shape=partialRectangle;connectable=0;fillColor=none;top=0;left=0;bottom=0;right=0;align=left;spacingLeft=2;overflow=hidden;fontSize=11;" vertex="1" parent="6kLEhNdqr8ct7NocNxT4-176">
          <mxGeometry x="114" width="22" height="22" as="geometry">
            <mxRectangle width="22" height="22" as="alternateBounds" />
          </mxGeometry>
        </mxCell>
        <mxCell id="6kLEhNdqr8ct7NocNxT4-180" value="" style="shape=partialRectangle;connectable=0;fillColor=none;top=0;left=0;bottom=0;right=0;align=left;spacingLeft=2;overflow=hidden;fontSize=11;" vertex="1" parent="6kLEhNdqr8ct7NocNxT4-176">
          <mxGeometry x="136" width="156" height="22" as="geometry">
            <mxRectangle width="156" height="22" as="alternateBounds" />
          </mxGeometry>
        </mxCell>
        <mxCell id="6kLEhNdqr8ct7NocNxT4-181" style="shape=tableRow;horizontal=0;startSize=0;swimlaneHead=0;swimlaneBody=0;fillColor=none;collapsible=0;dropTarget=0;points=[[0,0.5],[1,0.5]];portConstraint=eastwest;top=0;left=0;right=0;bottom=0;" vertex="1" parent="6kLEhNdqr8ct7NocNxT4-140">
          <mxGeometry y="201" width="292" height="22" as="geometry" />
        </mxCell>
        <mxCell id="6kLEhNdqr8ct7NocNxT4-182" value="string" style="shape=partialRectangle;connectable=0;fillColor=none;top=0;left=0;bottom=0;right=0;align=left;spacingLeft=2;overflow=hidden;fontSize=11;" vertex="1" parent="6kLEhNdqr8ct7NocNxT4-181">
          <mxGeometry width="36" height="22" as="geometry">
            <mxRectangle width="36" height="22" as="alternateBounds" />
          </mxGeometry>
        </mxCell>
        <mxCell id="6kLEhNdqr8ct7NocNxT4-183" value="materials" style="shape=partialRectangle;connectable=0;fillColor=none;top=0;left=0;bottom=0;right=0;align=left;spacingLeft=2;overflow=hidden;fontSize=11;" vertex="1" parent="6kLEhNdqr8ct7NocNxT4-181">
          <mxGeometry x="36" width="78" height="22" as="geometry">
            <mxRectangle width="78" height="22" as="alternateBounds" />
          </mxGeometry>
        </mxCell>
        <mxCell id="6kLEhNdqr8ct7NocNxT4-184" value="" style="shape=partialRectangle;connectable=0;fillColor=none;top=0;left=0;bottom=0;right=0;align=left;spacingLeft=2;overflow=hidden;fontSize=11;" vertex="1" parent="6kLEhNdqr8ct7NocNxT4-181">
          <mxGeometry x="114" width="22" height="22" as="geometry">
            <mxRectangle width="22" height="22" as="alternateBounds" />
          </mxGeometry>
        </mxCell>
        <mxCell id="6kLEhNdqr8ct7NocNxT4-185" value="" style="shape=partialRectangle;connectable=0;fillColor=none;top=0;left=0;bottom=0;right=0;align=left;spacingLeft=2;overflow=hidden;fontSize=11;" vertex="1" parent="6kLEhNdqr8ct7NocNxT4-181">
          <mxGeometry x="136" width="156" height="22" as="geometry">
            <mxRectangle width="156" height="22" as="alternateBounds" />
          </mxGeometry>
        </mxCell>
        <mxCell id="6kLEhNdqr8ct7NocNxT4-186" value="STUDENTS" style="shape=table;startSize=25;container=1;collapsible=0;childLayout=tableLayout;fixedRows=1;rowLines=1;fontStyle=1;align=center;resizeLast=1;" vertex="1" parent="1">
          <mxGeometry x="1259" y="554" width="388" height="245" as="geometry" />
        </mxCell>
        <mxCell id="6kLEhNdqr8ct7NocNxT4-187" style="shape=tableRow;horizontal=0;startSize=0;swimlaneHead=0;swimlaneBody=0;fillColor=none;collapsible=0;dropTarget=0;points=[[0,0.5],[1,0.5]];portConstraint=eastwest;top=0;left=0;right=0;bottom=0;" vertex="1" parent="6kLEhNdqr8ct7NocNxT4-186">
          <mxGeometry y="25" width="388" height="22" as="geometry" />
        </mxCell>
        <mxCell id="6kLEhNdqr8ct7NocNxT4-188" value="int" style="shape=partialRectangle;connectable=0;fillColor=none;top=0;left=0;bottom=0;right=0;align=left;spacingLeft=2;overflow=hidden;fontSize=11;" vertex="1" parent="6kLEhNdqr8ct7NocNxT4-187">
          <mxGeometry width="42" height="22" as="geometry">
            <mxRectangle width="42" height="22" as="alternateBounds" />
          </mxGeometry>
        </mxCell>
        <mxCell id="6kLEhNdqr8ct7NocNxT4-189" value="student_id" style="shape=partialRectangle;connectable=0;fillColor=none;top=0;left=0;bottom=0;right=0;align=left;spacingLeft=2;overflow=hidden;fontSize=11;" vertex="1" parent="6kLEhNdqr8ct7NocNxT4-187">
          <mxGeometry x="42" width="120" height="22" as="geometry">
            <mxRectangle width="120" height="22" as="alternateBounds" />
          </mxGeometry>
        </mxCell>
        <mxCell id="6kLEhNdqr8ct7NocNxT4-190" value="PK" style="shape=partialRectangle;connectable=0;fillColor=none;top=0;left=0;bottom=0;right=0;align=left;spacingLeft=2;overflow=hidden;fontSize=11;" vertex="1" parent="6kLEhNdqr8ct7NocNxT4-187">
          <mxGeometry x="162" width="22" height="22" as="geometry">
            <mxRectangle width="22" height="22" as="alternateBounds" />
          </mxGeometry>
        </mxCell>
        <mxCell id="6kLEhNdqr8ct7NocNxT4-191" value="Primary Key" style="shape=partialRectangle;connectable=0;fillColor=none;top=0;left=0;bottom=0;right=0;align=left;spacingLeft=2;overflow=hidden;fontSize=11;" vertex="1" parent="6kLEhNdqr8ct7NocNxT4-187">
          <mxGeometry x="184" width="204" height="22" as="geometry">
            <mxRectangle width="204" height="22" as="alternateBounds" />
          </mxGeometry>
        </mxCell>
        <mxCell id="6kLEhNdqr8ct7NocNxT4-192" style="shape=tableRow;horizontal=0;startSize=0;swimlaneHead=0;swimlaneBody=0;fillColor=none;collapsible=0;dropTarget=0;points=[[0,0.5],[1,0.5]];portConstraint=eastwest;top=0;left=0;right=0;bottom=0;" vertex="1" parent="6kLEhNdqr8ct7NocNxT4-186">
          <mxGeometry y="47" width="388" height="22" as="geometry" />
        </mxCell>
        <mxCell id="6kLEhNdqr8ct7NocNxT4-193" value="string" style="shape=partialRectangle;connectable=0;fillColor=none;top=0;left=0;bottom=0;right=0;align=left;spacingLeft=2;overflow=hidden;fontSize=11;" vertex="1" parent="6kLEhNdqr8ct7NocNxT4-192">
          <mxGeometry width="42" height="22" as="geometry">
            <mxRectangle width="42" height="22" as="alternateBounds" />
          </mxGeometry>
        </mxCell>
        <mxCell id="6kLEhNdqr8ct7NocNxT4-194" value="name" style="shape=partialRectangle;connectable=0;fillColor=none;top=0;left=0;bottom=0;right=0;align=left;spacingLeft=2;overflow=hidden;fontSize=11;" vertex="1" parent="6kLEhNdqr8ct7NocNxT4-192">
          <mxGeometry x="42" width="120" height="22" as="geometry">
            <mxRectangle width="120" height="22" as="alternateBounds" />
          </mxGeometry>
        </mxCell>
        <mxCell id="6kLEhNdqr8ct7NocNxT4-195" value="" style="shape=partialRectangle;connectable=0;fillColor=none;top=0;left=0;bottom=0;right=0;align=left;spacingLeft=2;overflow=hidden;fontSize=11;" vertex="1" parent="6kLEhNdqr8ct7NocNxT4-192">
          <mxGeometry x="162" width="22" height="22" as="geometry">
            <mxRectangle width="22" height="22" as="alternateBounds" />
          </mxGeometry>
        </mxCell>
        <mxCell id="6kLEhNdqr8ct7NocNxT4-196" value="" style="shape=partialRectangle;connectable=0;fillColor=none;top=0;left=0;bottom=0;right=0;align=left;spacingLeft=2;overflow=hidden;fontSize=11;" vertex="1" parent="6kLEhNdqr8ct7NocNxT4-192">
          <mxGeometry x="184" width="204" height="22" as="geometry">
            <mxRectangle width="204" height="22" as="alternateBounds" />
          </mxGeometry>
        </mxCell>
        <mxCell id="6kLEhNdqr8ct7NocNxT4-197" style="shape=tableRow;horizontal=0;startSize=0;swimlaneHead=0;swimlaneBody=0;fillColor=none;collapsible=0;dropTarget=0;points=[[0,0.5],[1,0.5]];portConstraint=eastwest;top=0;left=0;right=0;bottom=0;" vertex="1" parent="6kLEhNdqr8ct7NocNxT4-186">
          <mxGeometry y="69" width="388" height="22" as="geometry" />
        </mxCell>
        <mxCell id="6kLEhNdqr8ct7NocNxT4-198" value="date" style="shape=partialRectangle;connectable=0;fillColor=none;top=0;left=0;bottom=0;right=0;align=left;spacingLeft=2;overflow=hidden;fontSize=11;" vertex="1" parent="6kLEhNdqr8ct7NocNxT4-197">
          <mxGeometry width="42" height="22" as="geometry">
            <mxRectangle width="42" height="22" as="alternateBounds" />
          </mxGeometry>
        </mxCell>
        <mxCell id="6kLEhNdqr8ct7NocNxT4-199" value="dob" style="shape=partialRectangle;connectable=0;fillColor=none;top=0;left=0;bottom=0;right=0;align=left;spacingLeft=2;overflow=hidden;fontSize=11;" vertex="1" parent="6kLEhNdqr8ct7NocNxT4-197">
          <mxGeometry x="42" width="120" height="22" as="geometry">
            <mxRectangle width="120" height="22" as="alternateBounds" />
          </mxGeometry>
        </mxCell>
        <mxCell id="6kLEhNdqr8ct7NocNxT4-200" value="" style="shape=partialRectangle;connectable=0;fillColor=none;top=0;left=0;bottom=0;right=0;align=left;spacingLeft=2;overflow=hidden;fontSize=11;" vertex="1" parent="6kLEhNdqr8ct7NocNxT4-197">
          <mxGeometry x="162" width="22" height="22" as="geometry">
            <mxRectangle width="22" height="22" as="alternateBounds" />
          </mxGeometry>
        </mxCell>
        <mxCell id="6kLEhNdqr8ct7NocNxT4-201" value="" style="shape=partialRectangle;connectable=0;fillColor=none;top=0;left=0;bottom=0;right=0;align=left;spacingLeft=2;overflow=hidden;fontSize=11;" vertex="1" parent="6kLEhNdqr8ct7NocNxT4-197">
          <mxGeometry x="184" width="204" height="22" as="geometry">
            <mxRectangle width="204" height="22" as="alternateBounds" />
          </mxGeometry>
        </mxCell>
        <mxCell id="6kLEhNdqr8ct7NocNxT4-202" style="shape=tableRow;horizontal=0;startSize=0;swimlaneHead=0;swimlaneBody=0;fillColor=none;collapsible=0;dropTarget=0;points=[[0,0.5],[1,0.5]];portConstraint=eastwest;top=0;left=0;right=0;bottom=0;" vertex="1" parent="6kLEhNdqr8ct7NocNxT4-186">
          <mxGeometry y="91" width="388" height="22" as="geometry" />
        </mxCell>
        <mxCell id="6kLEhNdqr8ct7NocNxT4-203" value="string" style="shape=partialRectangle;connectable=0;fillColor=none;top=0;left=0;bottom=0;right=0;align=left;spacingLeft=2;overflow=hidden;fontSize=11;" vertex="1" parent="6kLEhNdqr8ct7NocNxT4-202">
          <mxGeometry width="42" height="22" as="geometry">
            <mxRectangle width="42" height="22" as="alternateBounds" />
          </mxGeometry>
        </mxCell>
        <mxCell id="6kLEhNdqr8ct7NocNxT4-204" value="contact_info" style="shape=partialRectangle;connectable=0;fillColor=none;top=0;left=0;bottom=0;right=0;align=left;spacingLeft=2;overflow=hidden;fontSize=11;" vertex="1" parent="6kLEhNdqr8ct7NocNxT4-202">
          <mxGeometry x="42" width="120" height="22" as="geometry">
            <mxRectangle width="120" height="22" as="alternateBounds" />
          </mxGeometry>
        </mxCell>
        <mxCell id="6kLEhNdqr8ct7NocNxT4-205" value="" style="shape=partialRectangle;connectable=0;fillColor=none;top=0;left=0;bottom=0;right=0;align=left;spacingLeft=2;overflow=hidden;fontSize=11;" vertex="1" parent="6kLEhNdqr8ct7NocNxT4-202">
          <mxGeometry x="162" width="22" height="22" as="geometry">
            <mxRectangle width="22" height="22" as="alternateBounds" />
          </mxGeometry>
        </mxCell>
        <mxCell id="6kLEhNdqr8ct7NocNxT4-206" value="" style="shape=partialRectangle;connectable=0;fillColor=none;top=0;left=0;bottom=0;right=0;align=left;spacingLeft=2;overflow=hidden;fontSize=11;" vertex="1" parent="6kLEhNdqr8ct7NocNxT4-202">
          <mxGeometry x="184" width="204" height="22" as="geometry">
            <mxRectangle width="204" height="22" as="alternateBounds" />
          </mxGeometry>
        </mxCell>
        <mxCell id="6kLEhNdqr8ct7NocNxT4-207" style="shape=tableRow;horizontal=0;startSize=0;swimlaneHead=0;swimlaneBody=0;fillColor=none;collapsible=0;dropTarget=0;points=[[0,0.5],[1,0.5]];portConstraint=eastwest;top=0;left=0;right=0;bottom=0;" vertex="1" parent="6kLEhNdqr8ct7NocNxT4-186">
          <mxGeometry y="113" width="388" height="22" as="geometry" />
        </mxCell>
        <mxCell id="6kLEhNdqr8ct7NocNxT4-208" value="string" style="shape=partialRectangle;connectable=0;fillColor=none;top=0;left=0;bottom=0;right=0;align=left;spacingLeft=2;overflow=hidden;fontSize=11;" vertex="1" parent="6kLEhNdqr8ct7NocNxT4-207">
          <mxGeometry width="42" height="22" as="geometry">
            <mxRectangle width="42" height="22" as="alternateBounds" />
          </mxGeometry>
        </mxCell>
        <mxCell id="6kLEhNdqr8ct7NocNxT4-209" value="program_id" style="shape=partialRectangle;connectable=0;fillColor=none;top=0;left=0;bottom=0;right=0;align=left;spacingLeft=2;overflow=hidden;fontSize=11;" vertex="1" parent="6kLEhNdqr8ct7NocNxT4-207">
          <mxGeometry x="42" width="120" height="22" as="geometry">
            <mxRectangle width="120" height="22" as="alternateBounds" />
          </mxGeometry>
        </mxCell>
        <mxCell id="6kLEhNdqr8ct7NocNxT4-210" value="FK" style="shape=partialRectangle;connectable=0;fillColor=none;top=0;left=0;bottom=0;right=0;align=left;spacingLeft=2;overflow=hidden;fontSize=11;" vertex="1" parent="6kLEhNdqr8ct7NocNxT4-207">
          <mxGeometry x="162" width="22" height="22" as="geometry">
            <mxRectangle width="22" height="22" as="alternateBounds" />
          </mxGeometry>
        </mxCell>
        <mxCell id="6kLEhNdqr8ct7NocNxT4-211" value="Foreign Key to Programs" style="shape=partialRectangle;connectable=0;fillColor=none;top=0;left=0;bottom=0;right=0;align=left;spacingLeft=2;overflow=hidden;fontSize=11;" vertex="1" parent="6kLEhNdqr8ct7NocNxT4-207">
          <mxGeometry x="184" width="204" height="22" as="geometry">
            <mxRectangle width="204" height="22" as="alternateBounds" />
          </mxGeometry>
        </mxCell>
        <mxCell id="6kLEhNdqr8ct7NocNxT4-212" style="shape=tableRow;horizontal=0;startSize=0;swimlaneHead=0;swimlaneBody=0;fillColor=none;collapsible=0;dropTarget=0;points=[[0,0.5],[1,0.5]];portConstraint=eastwest;top=0;left=0;right=0;bottom=0;" vertex="1" parent="6kLEhNdqr8ct7NocNxT4-186">
          <mxGeometry y="135" width="388" height="22" as="geometry" />
        </mxCell>
        <mxCell id="6kLEhNdqr8ct7NocNxT4-213" value="int" style="shape=partialRectangle;connectable=0;fillColor=none;top=0;left=0;bottom=0;right=0;align=left;spacingLeft=2;overflow=hidden;fontSize=11;" vertex="1" parent="6kLEhNdqr8ct7NocNxT4-212">
          <mxGeometry width="42" height="22" as="geometry">
            <mxRectangle width="42" height="22" as="alternateBounds" />
          </mxGeometry>
        </mxCell>
        <mxCell id="6kLEhNdqr8ct7NocNxT4-214" value="year_of_study" style="shape=partialRectangle;connectable=0;fillColor=none;top=0;left=0;bottom=0;right=0;align=left;spacingLeft=2;overflow=hidden;fontSize=11;" vertex="1" parent="6kLEhNdqr8ct7NocNxT4-212">
          <mxGeometry x="42" width="120" height="22" as="geometry">
            <mxRectangle width="120" height="22" as="alternateBounds" />
          </mxGeometry>
        </mxCell>
        <mxCell id="6kLEhNdqr8ct7NocNxT4-215" value="" style="shape=partialRectangle;connectable=0;fillColor=none;top=0;left=0;bottom=0;right=0;align=left;spacingLeft=2;overflow=hidden;fontSize=11;" vertex="1" parent="6kLEhNdqr8ct7NocNxT4-212">
          <mxGeometry x="162" width="22" height="22" as="geometry">
            <mxRectangle width="22" height="22" as="alternateBounds" />
          </mxGeometry>
        </mxCell>
        <mxCell id="6kLEhNdqr8ct7NocNxT4-216" value="" style="shape=partialRectangle;connectable=0;fillColor=none;top=0;left=0;bottom=0;right=0;align=left;spacingLeft=2;overflow=hidden;fontSize=11;" vertex="1" parent="6kLEhNdqr8ct7NocNxT4-212">
          <mxGeometry x="184" width="204" height="22" as="geometry">
            <mxRectangle width="204" height="22" as="alternateBounds" />
          </mxGeometry>
        </mxCell>
        <mxCell id="6kLEhNdqr8ct7NocNxT4-217" style="shape=tableRow;horizontal=0;startSize=0;swimlaneHead=0;swimlaneBody=0;fillColor=none;collapsible=0;dropTarget=0;points=[[0,0.5],[1,0.5]];portConstraint=eastwest;top=0;left=0;right=0;bottom=0;" vertex="1" parent="6kLEhNdqr8ct7NocNxT4-186">
          <mxGeometry y="157" width="388" height="22" as="geometry" />
        </mxCell>
        <mxCell id="6kLEhNdqr8ct7NocNxT4-218" value="decimal" style="shape=partialRectangle;connectable=0;fillColor=none;top=0;left=0;bottom=0;right=0;align=left;spacingLeft=2;overflow=hidden;fontSize=11;" vertex="1" parent="6kLEhNdqr8ct7NocNxT4-217">
          <mxGeometry width="42" height="22" as="geometry">
            <mxRectangle width="42" height="22" as="alternateBounds" />
          </mxGeometry>
        </mxCell>
        <mxCell id="6kLEhNdqr8ct7NocNxT4-219" value="avg_grade" style="shape=partialRectangle;connectable=0;fillColor=none;top=0;left=0;bottom=0;right=0;align=left;spacingLeft=2;overflow=hidden;fontSize=11;" vertex="1" parent="6kLEhNdqr8ct7NocNxT4-217">
          <mxGeometry x="42" width="120" height="22" as="geometry">
            <mxRectangle width="120" height="22" as="alternateBounds" />
          </mxGeometry>
        </mxCell>
        <mxCell id="6kLEhNdqr8ct7NocNxT4-220" value="" style="shape=partialRectangle;connectable=0;fillColor=none;top=0;left=0;bottom=0;right=0;align=left;spacingLeft=2;overflow=hidden;fontSize=11;" vertex="1" parent="6kLEhNdqr8ct7NocNxT4-217">
          <mxGeometry x="162" width="22" height="22" as="geometry">
            <mxRectangle width="22" height="22" as="alternateBounds" />
          </mxGeometry>
        </mxCell>
        <mxCell id="6kLEhNdqr8ct7NocNxT4-221" value="" style="shape=partialRectangle;connectable=0;fillColor=none;top=0;left=0;bottom=0;right=0;align=left;spacingLeft=2;overflow=hidden;fontSize=11;" vertex="1" parent="6kLEhNdqr8ct7NocNxT4-217">
          <mxGeometry x="184" width="204" height="22" as="geometry">
            <mxRectangle width="204" height="22" as="alternateBounds" />
          </mxGeometry>
        </mxCell>
        <mxCell id="6kLEhNdqr8ct7NocNxT4-222" style="shape=tableRow;horizontal=0;startSize=0;swimlaneHead=0;swimlaneBody=0;fillColor=none;collapsible=0;dropTarget=0;points=[[0,0.5],[1,0.5]];portConstraint=eastwest;top=0;left=0;right=0;bottom=0;" vertex="1" parent="6kLEhNdqr8ct7NocNxT4-186">
          <mxGeometry y="179" width="388" height="22" as="geometry" />
        </mxCell>
        <mxCell id="6kLEhNdqr8ct7NocNxT4-223" value="string" style="shape=partialRectangle;connectable=0;fillColor=none;top=0;left=0;bottom=0;right=0;align=left;spacingLeft=2;overflow=hidden;fontSize=11;" vertex="1" parent="6kLEhNdqr8ct7NocNxT4-222">
          <mxGeometry width="42" height="22" as="geometry">
            <mxRectangle width="42" height="22" as="alternateBounds" />
          </mxGeometry>
        </mxCell>
        <mxCell id="6kLEhNdqr8ct7NocNxT4-224" value="graduation_status" style="shape=partialRectangle;connectable=0;fillColor=none;top=0;left=0;bottom=0;right=0;align=left;spacingLeft=2;overflow=hidden;fontSize=11;" vertex="1" parent="6kLEhNdqr8ct7NocNxT4-222">
          <mxGeometry x="42" width="120" height="22" as="geometry">
            <mxRectangle width="120" height="22" as="alternateBounds" />
          </mxGeometry>
        </mxCell>
        <mxCell id="6kLEhNdqr8ct7NocNxT4-225" value="" style="shape=partialRectangle;connectable=0;fillColor=none;top=0;left=0;bottom=0;right=0;align=left;spacingLeft=2;overflow=hidden;fontSize=11;" vertex="1" parent="6kLEhNdqr8ct7NocNxT4-222">
          <mxGeometry x="162" width="22" height="22" as="geometry">
            <mxRectangle width="22" height="22" as="alternateBounds" />
          </mxGeometry>
        </mxCell>
        <mxCell id="6kLEhNdqr8ct7NocNxT4-226" value="" style="shape=partialRectangle;connectable=0;fillColor=none;top=0;left=0;bottom=0;right=0;align=left;spacingLeft=2;overflow=hidden;fontSize=11;" vertex="1" parent="6kLEhNdqr8ct7NocNxT4-222">
          <mxGeometry x="184" width="204" height="22" as="geometry">
            <mxRectangle width="204" height="22" as="alternateBounds" />
          </mxGeometry>
        </mxCell>
        <mxCell id="6kLEhNdqr8ct7NocNxT4-227" style="shape=tableRow;horizontal=0;startSize=0;swimlaneHead=0;swimlaneBody=0;fillColor=none;collapsible=0;dropTarget=0;points=[[0,0.5],[1,0.5]];portConstraint=eastwest;top=0;left=0;right=0;bottom=0;" vertex="1" parent="6kLEhNdqr8ct7NocNxT4-186">
          <mxGeometry y="201" width="388" height="22" as="geometry" />
        </mxCell>
        <mxCell id="6kLEhNdqr8ct7NocNxT4-228" value="string" style="shape=partialRectangle;connectable=0;fillColor=none;top=0;left=0;bottom=0;right=0;align=left;spacingLeft=2;overflow=hidden;fontSize=11;" vertex="1" parent="6kLEhNdqr8ct7NocNxT4-227">
          <mxGeometry width="42" height="22" as="geometry">
            <mxRectangle width="42" height="22" as="alternateBounds" />
          </mxGeometry>
        </mxCell>
        <mxCell id="6kLEhNdqr8ct7NocNxT4-229" value="disciplinary_records" style="shape=partialRectangle;connectable=0;fillColor=none;top=0;left=0;bottom=0;right=0;align=left;spacingLeft=2;overflow=hidden;fontSize=11;" vertex="1" parent="6kLEhNdqr8ct7NocNxT4-227">
          <mxGeometry x="42" width="120" height="22" as="geometry">
            <mxRectangle width="120" height="22" as="alternateBounds" />
          </mxGeometry>
        </mxCell>
        <mxCell id="6kLEhNdqr8ct7NocNxT4-230" value="" style="shape=partialRectangle;connectable=0;fillColor=none;top=0;left=0;bottom=0;right=0;align=left;spacingLeft=2;overflow=hidden;fontSize=11;" vertex="1" parent="6kLEhNdqr8ct7NocNxT4-227">
          <mxGeometry x="162" width="22" height="22" as="geometry">
            <mxRectangle width="22" height="22" as="alternateBounds" />
          </mxGeometry>
        </mxCell>
        <mxCell id="6kLEhNdqr8ct7NocNxT4-231" value="" style="shape=partialRectangle;connectable=0;fillColor=none;top=0;left=0;bottom=0;right=0;align=left;spacingLeft=2;overflow=hidden;fontSize=11;" vertex="1" parent="6kLEhNdqr8ct7NocNxT4-227">
          <mxGeometry x="184" width="204" height="22" as="geometry">
            <mxRectangle width="204" height="22" as="alternateBounds" />
          </mxGeometry>
        </mxCell>
        <mxCell id="6kLEhNdqr8ct7NocNxT4-232" style="shape=tableRow;horizontal=0;startSize=0;swimlaneHead=0;swimlaneBody=0;fillColor=none;collapsible=0;dropTarget=0;points=[[0,0.5],[1,0.5]];portConstraint=eastwest;top=0;left=0;right=0;bottom=0;" vertex="1" parent="6kLEhNdqr8ct7NocNxT4-186">
          <mxGeometry y="223" width="388" height="22" as="geometry" />
        </mxCell>
        <mxCell id="6kLEhNdqr8ct7NocNxT4-233" value="int" style="shape=partialRectangle;connectable=0;fillColor=none;top=0;left=0;bottom=0;right=0;align=left;spacingLeft=2;overflow=hidden;fontSize=11;" vertex="1" parent="6kLEhNdqr8ct7NocNxT4-232">
          <mxGeometry width="42" height="22" as="geometry">
            <mxRectangle width="42" height="22" as="alternateBounds" />
          </mxGeometry>
        </mxCell>
        <mxCell id="6kLEhNdqr8ct7NocNxT4-234" value="advisor_id" style="shape=partialRectangle;connectable=0;fillColor=none;top=0;left=0;bottom=0;right=0;align=left;spacingLeft=2;overflow=hidden;fontSize=11;" vertex="1" parent="6kLEhNdqr8ct7NocNxT4-232">
          <mxGeometry x="42" width="120" height="22" as="geometry">
            <mxRectangle width="120" height="22" as="alternateBounds" />
          </mxGeometry>
        </mxCell>
        <mxCell id="6kLEhNdqr8ct7NocNxT4-235" value="FK" style="shape=partialRectangle;connectable=0;fillColor=none;top=0;left=0;bottom=0;right=0;align=left;spacingLeft=2;overflow=hidden;fontSize=11;" vertex="1" parent="6kLEhNdqr8ct7NocNxT4-232">
          <mxGeometry x="162" width="22" height="22" as="geometry">
            <mxRectangle width="22" height="22" as="alternateBounds" />
          </mxGeometry>
        </mxCell>
        <mxCell id="6kLEhNdqr8ct7NocNxT4-236" value="Foreign Key to Lecturers (Advisor)" style="shape=partialRectangle;connectable=0;fillColor=none;top=0;left=0;bottom=0;right=0;align=left;spacingLeft=2;overflow=hidden;fontSize=11;" vertex="1" parent="6kLEhNdqr8ct7NocNxT4-232">
          <mxGeometry x="184" width="204" height="22" as="geometry">
            <mxRectangle width="204" height="22" as="alternateBounds" />
          </mxGeometry>
        </mxCell>
        <mxCell id="6kLEhNdqr8ct7NocNxT4-237" value="STUDENTCOURSE" style="shape=table;startSize=25;container=1;collapsible=0;childLayout=tableLayout;fixedRows=1;rowLines=1;fontStyle=1;align=center;resizeLast=1;" vertex="1" parent="1">
          <mxGeometry x="714" y="898" width="262" height="91" as="geometry" />
        </mxCell>
        <mxCell id="6kLEhNdqr8ct7NocNxT4-238" style="shape=tableRow;horizontal=0;startSize=0;swimlaneHead=0;swimlaneBody=0;fillColor=none;collapsible=0;dropTarget=0;points=[[0,0.5],[1,0.5]];portConstraint=eastwest;top=0;left=0;right=0;bottom=0;" vertex="1" parent="6kLEhNdqr8ct7NocNxT4-237">
          <mxGeometry y="25" width="262" height="22" as="geometry" />
        </mxCell>
        <mxCell id="6kLEhNdqr8ct7NocNxT4-239" value="int" style="shape=partialRectangle;connectable=0;fillColor=none;top=0;left=0;bottom=0;right=0;align=left;spacingLeft=2;overflow=hidden;fontSize=11;" vertex="1" parent="6kLEhNdqr8ct7NocNxT4-238">
          <mxGeometry width="36" height="22" as="geometry">
            <mxRectangle width="36" height="22" as="alternateBounds" />
          </mxGeometry>
        </mxCell>
        <mxCell id="6kLEhNdqr8ct7NocNxT4-240" value="student_id" style="shape=partialRectangle;connectable=0;fillColor=none;top=0;left=0;bottom=0;right=0;align=left;spacingLeft=2;overflow=hidden;fontSize=11;" vertex="1" parent="6kLEhNdqr8ct7NocNxT4-238">
          <mxGeometry x="36" width="66" height="22" as="geometry">
            <mxRectangle width="66" height="22" as="alternateBounds" />
          </mxGeometry>
        </mxCell>
        <mxCell id="6kLEhNdqr8ct7NocNxT4-241" value="FK" style="shape=partialRectangle;connectable=0;fillColor=none;top=0;left=0;bottom=0;right=0;align=left;spacingLeft=2;overflow=hidden;fontSize=11;" vertex="1" parent="6kLEhNdqr8ct7NocNxT4-238">
          <mxGeometry x="102" width="22" height="22" as="geometry">
            <mxRectangle width="22" height="22" as="alternateBounds" />
          </mxGeometry>
        </mxCell>
        <mxCell id="6kLEhNdqr8ct7NocNxT4-242" value="Foreign Key to Students" style="shape=partialRectangle;connectable=0;fillColor=none;top=0;left=0;bottom=0;right=0;align=left;spacingLeft=2;overflow=hidden;fontSize=11;" vertex="1" parent="6kLEhNdqr8ct7NocNxT4-238">
          <mxGeometry x="124" width="138" height="22" as="geometry">
            <mxRectangle width="138" height="22" as="alternateBounds" />
          </mxGeometry>
        </mxCell>
        <mxCell id="6kLEhNdqr8ct7NocNxT4-243" style="shape=tableRow;horizontal=0;startSize=0;swimlaneHead=0;swimlaneBody=0;fillColor=none;collapsible=0;dropTarget=0;points=[[0,0.5],[1,0.5]];portConstraint=eastwest;top=0;left=0;right=0;bottom=0;" vertex="1" parent="6kLEhNdqr8ct7NocNxT4-237">
          <mxGeometry y="47" width="262" height="22" as="geometry" />
        </mxCell>
        <mxCell id="6kLEhNdqr8ct7NocNxT4-244" value="string" style="shape=partialRectangle;connectable=0;fillColor=none;top=0;left=0;bottom=0;right=0;align=left;spacingLeft=2;overflow=hidden;fontSize=11;" vertex="1" parent="6kLEhNdqr8ct7NocNxT4-243">
          <mxGeometry width="36" height="22" as="geometry">
            <mxRectangle width="36" height="22" as="alternateBounds" />
          </mxGeometry>
        </mxCell>
        <mxCell id="6kLEhNdqr8ct7NocNxT4-245" value="course_code" style="shape=partialRectangle;connectable=0;fillColor=none;top=0;left=0;bottom=0;right=0;align=left;spacingLeft=2;overflow=hidden;fontSize=11;" vertex="1" parent="6kLEhNdqr8ct7NocNxT4-243">
          <mxGeometry x="36" width="66" height="22" as="geometry">
            <mxRectangle width="66" height="22" as="alternateBounds" />
          </mxGeometry>
        </mxCell>
        <mxCell id="6kLEhNdqr8ct7NocNxT4-246" value="FK" style="shape=partialRectangle;connectable=0;fillColor=none;top=0;left=0;bottom=0;right=0;align=left;spacingLeft=2;overflow=hidden;fontSize=11;" vertex="1" parent="6kLEhNdqr8ct7NocNxT4-243">
          <mxGeometry x="102" width="22" height="22" as="geometry">
            <mxRectangle width="22" height="22" as="alternateBounds" />
          </mxGeometry>
        </mxCell>
        <mxCell id="6kLEhNdqr8ct7NocNxT4-247" value="Foreign Key to Courses" style="shape=partialRectangle;connectable=0;fillColor=none;top=0;left=0;bottom=0;right=0;align=left;spacingLeft=2;overflow=hidden;fontSize=11;" vertex="1" parent="6kLEhNdqr8ct7NocNxT4-243">
          <mxGeometry x="124" width="138" height="22" as="geometry">
            <mxRectangle width="138" height="22" as="alternateBounds" />
          </mxGeometry>
        </mxCell>
        <mxCell id="6kLEhNdqr8ct7NocNxT4-248" style="shape=tableRow;horizontal=0;startSize=0;swimlaneHead=0;swimlaneBody=0;fillColor=none;collapsible=0;dropTarget=0;points=[[0,0.5],[1,0.5]];portConstraint=eastwest;top=0;left=0;right=0;bottom=0;" vertex="1" parent="6kLEhNdqr8ct7NocNxT4-237">
          <mxGeometry y="69" width="262" height="22" as="geometry" />
        </mxCell>
        <mxCell id="6kLEhNdqr8ct7NocNxT4-249" value="string" style="shape=partialRectangle;connectable=0;fillColor=none;top=0;left=0;bottom=0;right=0;align=left;spacingLeft=2;overflow=hidden;fontSize=11;" vertex="1" parent="6kLEhNdqr8ct7NocNxT4-248">
          <mxGeometry width="36" height="22" as="geometry">
            <mxRectangle width="36" height="22" as="alternateBounds" />
          </mxGeometry>
        </mxCell>
        <mxCell id="6kLEhNdqr8ct7NocNxT4-250" value="semester" style="shape=partialRectangle;connectable=0;fillColor=none;top=0;left=0;bottom=0;right=0;align=left;spacingLeft=2;overflow=hidden;fontSize=11;" vertex="1" parent="6kLEhNdqr8ct7NocNxT4-248">
          <mxGeometry x="36" width="66" height="22" as="geometry">
            <mxRectangle width="66" height="22" as="alternateBounds" />
          </mxGeometry>
        </mxCell>
        <mxCell id="6kLEhNdqr8ct7NocNxT4-251" value="" style="shape=partialRectangle;connectable=0;fillColor=none;top=0;left=0;bottom=0;right=0;align=left;spacingLeft=2;overflow=hidden;fontSize=11;" vertex="1" parent="6kLEhNdqr8ct7NocNxT4-248">
          <mxGeometry x="102" width="22" height="22" as="geometry">
            <mxRectangle width="22" height="22" as="alternateBounds" />
          </mxGeometry>
        </mxCell>
        <mxCell id="6kLEhNdqr8ct7NocNxT4-252" value="" style="shape=partialRectangle;connectable=0;fillColor=none;top=0;left=0;bottom=0;right=0;align=left;spacingLeft=2;overflow=hidden;fontSize=11;" vertex="1" parent="6kLEhNdqr8ct7NocNxT4-248">
          <mxGeometry x="124" width="138" height="22" as="geometry">
            <mxRectangle width="138" height="22" as="alternateBounds" />
          </mxGeometry>
        </mxCell>
        <mxCell id="6kLEhNdqr8ct7NocNxT4-253" value="LECTURERCOURSE" style="shape=table;startSize=25;container=1;collapsible=0;childLayout=tableLayout;fixedRows=1;rowLines=1;fontStyle=1;align=center;resizeLast=1;" vertex="1" parent="1">
          <mxGeometry x="248" y="642" width="268" height="69" as="geometry" />
        </mxCell>
        <mxCell id="6kLEhNdqr8ct7NocNxT4-254" style="shape=tableRow;horizontal=0;startSize=0;swimlaneHead=0;swimlaneBody=0;fillColor=none;collapsible=0;dropTarget=0;points=[[0,0.5],[1,0.5]];portConstraint=eastwest;top=0;left=0;right=0;bottom=0;" vertex="1" parent="6kLEhNdqr8ct7NocNxT4-253">
          <mxGeometry y="25" width="268" height="22" as="geometry" />
        </mxCell>
        <mxCell id="6kLEhNdqr8ct7NocNxT4-255" value="int" style="shape=partialRectangle;connectable=0;fillColor=none;top=0;left=0;bottom=0;right=0;align=left;spacingLeft=2;overflow=hidden;fontSize=11;" vertex="1" parent="6kLEhNdqr8ct7NocNxT4-254">
          <mxGeometry width="36" height="22" as="geometry">
            <mxRectangle width="36" height="22" as="alternateBounds" />
          </mxGeometry>
        </mxCell>
        <mxCell id="6kLEhNdqr8ct7NocNxT4-256" value="lecturer_id" style="shape=partialRectangle;connectable=0;fillColor=none;top=0;left=0;bottom=0;right=0;align=left;spacingLeft=2;overflow=hidden;fontSize=11;" vertex="1" parent="6kLEhNdqr8ct7NocNxT4-254">
          <mxGeometry x="36" width="66" height="22" as="geometry">
            <mxRectangle width="66" height="22" as="alternateBounds" />
          </mxGeometry>
        </mxCell>
        <mxCell id="6kLEhNdqr8ct7NocNxT4-257" value="FK" style="shape=partialRectangle;connectable=0;fillColor=none;top=0;left=0;bottom=0;right=0;align=left;spacingLeft=2;overflow=hidden;fontSize=11;" vertex="1" parent="6kLEhNdqr8ct7NocNxT4-254">
          <mxGeometry x="102" width="22" height="22" as="geometry">
            <mxRectangle width="22" height="22" as="alternateBounds" />
          </mxGeometry>
        </mxCell>
        <mxCell id="6kLEhNdqr8ct7NocNxT4-258" value="Foreign Key to Lecturers" style="shape=partialRectangle;connectable=0;fillColor=none;top=0;left=0;bottom=0;right=0;align=left;spacingLeft=2;overflow=hidden;fontSize=11;" vertex="1" parent="6kLEhNdqr8ct7NocNxT4-254">
          <mxGeometry x="124" width="144" height="22" as="geometry">
            <mxRectangle width="144" height="22" as="alternateBounds" />
          </mxGeometry>
        </mxCell>
        <mxCell id="6kLEhNdqr8ct7NocNxT4-259" style="shape=tableRow;horizontal=0;startSize=0;swimlaneHead=0;swimlaneBody=0;fillColor=none;collapsible=0;dropTarget=0;points=[[0,0.5],[1,0.5]];portConstraint=eastwest;top=0;left=0;right=0;bottom=0;" vertex="1" parent="6kLEhNdqr8ct7NocNxT4-253">
          <mxGeometry y="47" width="268" height="22" as="geometry" />
        </mxCell>
        <mxCell id="6kLEhNdqr8ct7NocNxT4-260" value="string" style="shape=partialRectangle;connectable=0;fillColor=none;top=0;left=0;bottom=0;right=0;align=left;spacingLeft=2;overflow=hidden;fontSize=11;" vertex="1" parent="6kLEhNdqr8ct7NocNxT4-259">
          <mxGeometry width="36" height="22" as="geometry">
            <mxRectangle width="36" height="22" as="alternateBounds" />
          </mxGeometry>
        </mxCell>
        <mxCell id="6kLEhNdqr8ct7NocNxT4-261" value="course_code" style="shape=partialRectangle;connectable=0;fillColor=none;top=0;left=0;bottom=0;right=0;align=left;spacingLeft=2;overflow=hidden;fontSize=11;" vertex="1" parent="6kLEhNdqr8ct7NocNxT4-259">
          <mxGeometry x="36" width="66" height="22" as="geometry">
            <mxRectangle width="66" height="22" as="alternateBounds" />
          </mxGeometry>
        </mxCell>
        <mxCell id="6kLEhNdqr8ct7NocNxT4-262" value="FK" style="shape=partialRectangle;connectable=0;fillColor=none;top=0;left=0;bottom=0;right=0;align=left;spacingLeft=2;overflow=hidden;fontSize=11;" vertex="1" parent="6kLEhNdqr8ct7NocNxT4-259">
          <mxGeometry x="102" width="22" height="22" as="geometry">
            <mxRectangle width="22" height="22" as="alternateBounds" />
          </mxGeometry>
        </mxCell>
        <mxCell id="6kLEhNdqr8ct7NocNxT4-263" value="Foreign Key to Courses" style="shape=partialRectangle;connectable=0;fillColor=none;top=0;left=0;bottom=0;right=0;align=left;spacingLeft=2;overflow=hidden;fontSize=11;" vertex="1" parent="6kLEhNdqr8ct7NocNxT4-259">
          <mxGeometry x="124" width="144" height="22" as="geometry">
            <mxRectangle width="144" height="22" as="alternateBounds" />
          </mxGeometry>
        </mxCell>
        <mxCell id="6kLEhNdqr8ct7NocNxT4-264" value="RESEARCHPROJECTS" style="shape=table;startSize=25;container=1;collapsible=0;childLayout=tableLayout;fixedRows=1;rowLines=1;fontStyle=1;align=center;resizeLast=1;" vertex="1" parent="1">
          <mxGeometry x="597" y="587" width="334" height="179" as="geometry" />
        </mxCell>
        <mxCell id="6kLEhNdqr8ct7NocNxT4-265" style="shape=tableRow;horizontal=0;startSize=0;swimlaneHead=0;swimlaneBody=0;fillColor=none;collapsible=0;dropTarget=0;points=[[0,0.5],[1,0.5]];portConstraint=eastwest;top=0;left=0;right=0;bottom=0;" vertex="1" parent="6kLEhNdqr8ct7NocNxT4-264">
          <mxGeometry y="25" width="334" height="22" as="geometry" />
        </mxCell>
        <mxCell id="6kLEhNdqr8ct7NocNxT4-266" value="int" style="shape=partialRectangle;connectable=0;fillColor=none;top=0;left=0;bottom=0;right=0;align=left;spacingLeft=2;overflow=hidden;fontSize=11;" vertex="1" parent="6kLEhNdqr8ct7NocNxT4-265">
          <mxGeometry width="36" height="22" as="geometry">
            <mxRectangle width="36" height="22" as="alternateBounds" />
          </mxGeometry>
        </mxCell>
        <mxCell id="6kLEhNdqr8ct7NocNxT4-267" value="project_id" style="shape=partialRectangle;connectable=0;fillColor=none;top=0;left=0;bottom=0;right=0;align=left;spacingLeft=2;overflow=hidden;fontSize=11;" vertex="1" parent="6kLEhNdqr8ct7NocNxT4-265">
          <mxGeometry x="36" width="132" height="22" as="geometry">
            <mxRectangle width="132" height="22" as="alternateBounds" />
          </mxGeometry>
        </mxCell>
        <mxCell id="6kLEhNdqr8ct7NocNxT4-268" value="PK" style="shape=partialRectangle;connectable=0;fillColor=none;top=0;left=0;bottom=0;right=0;align=left;spacingLeft=2;overflow=hidden;fontSize=11;" vertex="1" parent="6kLEhNdqr8ct7NocNxT4-265">
          <mxGeometry x="168" width="22" height="22" as="geometry">
            <mxRectangle width="22" height="22" as="alternateBounds" />
          </mxGeometry>
        </mxCell>
        <mxCell id="6kLEhNdqr8ct7NocNxT4-269" value="Primary Key" style="shape=partialRectangle;connectable=0;fillColor=none;top=0;left=0;bottom=0;right=0;align=left;spacingLeft=2;overflow=hidden;fontSize=11;" vertex="1" parent="6kLEhNdqr8ct7NocNxT4-265">
          <mxGeometry x="190" width="144" height="22" as="geometry">
            <mxRectangle width="144" height="22" as="alternateBounds" />
          </mxGeometry>
        </mxCell>
        <mxCell id="6kLEhNdqr8ct7NocNxT4-270" style="shape=tableRow;horizontal=0;startSize=0;swimlaneHead=0;swimlaneBody=0;fillColor=none;collapsible=0;dropTarget=0;points=[[0,0.5],[1,0.5]];portConstraint=eastwest;top=0;left=0;right=0;bottom=0;" vertex="1" parent="6kLEhNdqr8ct7NocNxT4-264">
          <mxGeometry y="47" width="334" height="22" as="geometry" />
        </mxCell>
        <mxCell id="6kLEhNdqr8ct7NocNxT4-271" value="string" style="shape=partialRectangle;connectable=0;fillColor=none;top=0;left=0;bottom=0;right=0;align=left;spacingLeft=2;overflow=hidden;fontSize=11;" vertex="1" parent="6kLEhNdqr8ct7NocNxT4-270">
          <mxGeometry width="36" height="22" as="geometry">
            <mxRectangle width="36" height="22" as="alternateBounds" />
          </mxGeometry>
        </mxCell>
        <mxCell id="6kLEhNdqr8ct7NocNxT4-272" value="project_title" style="shape=partialRectangle;connectable=0;fillColor=none;top=0;left=0;bottom=0;right=0;align=left;spacingLeft=2;overflow=hidden;fontSize=11;" vertex="1" parent="6kLEhNdqr8ct7NocNxT4-270">
          <mxGeometry x="36" width="132" height="22" as="geometry">
            <mxRectangle width="132" height="22" as="alternateBounds" />
          </mxGeometry>
        </mxCell>
        <mxCell id="6kLEhNdqr8ct7NocNxT4-273" value="" style="shape=partialRectangle;connectable=0;fillColor=none;top=0;left=0;bottom=0;right=0;align=left;spacingLeft=2;overflow=hidden;fontSize=11;" vertex="1" parent="6kLEhNdqr8ct7NocNxT4-270">
          <mxGeometry x="168" width="22" height="22" as="geometry">
            <mxRectangle width="22" height="22" as="alternateBounds" />
          </mxGeometry>
        </mxCell>
        <mxCell id="6kLEhNdqr8ct7NocNxT4-274" value="" style="shape=partialRectangle;connectable=0;fillColor=none;top=0;left=0;bottom=0;right=0;align=left;spacingLeft=2;overflow=hidden;fontSize=11;" vertex="1" parent="6kLEhNdqr8ct7NocNxT4-270">
          <mxGeometry x="190" width="144" height="22" as="geometry">
            <mxRectangle width="144" height="22" as="alternateBounds" />
          </mxGeometry>
        </mxCell>
        <mxCell id="6kLEhNdqr8ct7NocNxT4-275" style="shape=tableRow;horizontal=0;startSize=0;swimlaneHead=0;swimlaneBody=0;fillColor=none;collapsible=0;dropTarget=0;points=[[0,0.5],[1,0.5]];portConstraint=eastwest;top=0;left=0;right=0;bottom=0;" vertex="1" parent="6kLEhNdqr8ct7NocNxT4-264">
          <mxGeometry y="69" width="334" height="22" as="geometry" />
        </mxCell>
        <mxCell id="6kLEhNdqr8ct7NocNxT4-276" value="int" style="shape=partialRectangle;connectable=0;fillColor=none;top=0;left=0;bottom=0;right=0;align=left;spacingLeft=2;overflow=hidden;fontSize=11;" vertex="1" parent="6kLEhNdqr8ct7NocNxT4-275">
          <mxGeometry width="36" height="22" as="geometry">
            <mxRectangle width="36" height="22" as="alternateBounds" />
          </mxGeometry>
        </mxCell>
        <mxCell id="6kLEhNdqr8ct7NocNxT4-277" value="principal_investigator" style="shape=partialRectangle;connectable=0;fillColor=none;top=0;left=0;bottom=0;right=0;align=left;spacingLeft=2;overflow=hidden;fontSize=11;" vertex="1" parent="6kLEhNdqr8ct7NocNxT4-275">
          <mxGeometry x="36" width="132" height="22" as="geometry">
            <mxRectangle width="132" height="22" as="alternateBounds" />
          </mxGeometry>
        </mxCell>
        <mxCell id="6kLEhNdqr8ct7NocNxT4-278" value="FK" style="shape=partialRectangle;connectable=0;fillColor=none;top=0;left=0;bottom=0;right=0;align=left;spacingLeft=2;overflow=hidden;fontSize=11;" vertex="1" parent="6kLEhNdqr8ct7NocNxT4-275">
          <mxGeometry x="168" width="22" height="22" as="geometry">
            <mxRectangle width="22" height="22" as="alternateBounds" />
          </mxGeometry>
        </mxCell>
        <mxCell id="6kLEhNdqr8ct7NocNxT4-279" value="Foreign Key to Lecturers" style="shape=partialRectangle;connectable=0;fillColor=none;top=0;left=0;bottom=0;right=0;align=left;spacingLeft=2;overflow=hidden;fontSize=11;" vertex="1" parent="6kLEhNdqr8ct7NocNxT4-275">
          <mxGeometry x="190" width="144" height="22" as="geometry">
            <mxRectangle width="144" height="22" as="alternateBounds" />
          </mxGeometry>
        </mxCell>
        <mxCell id="6kLEhNdqr8ct7NocNxT4-280" style="shape=tableRow;horizontal=0;startSize=0;swimlaneHead=0;swimlaneBody=0;fillColor=none;collapsible=0;dropTarget=0;points=[[0,0.5],[1,0.5]];portConstraint=eastwest;top=0;left=0;right=0;bottom=0;" vertex="1" parent="6kLEhNdqr8ct7NocNxT4-264">
          <mxGeometry y="91" width="334" height="22" as="geometry" />
        </mxCell>
        <mxCell id="6kLEhNdqr8ct7NocNxT4-281" value="string" style="shape=partialRectangle;connectable=0;fillColor=none;top=0;left=0;bottom=0;right=0;align=left;spacingLeft=2;overflow=hidden;fontSize=11;" vertex="1" parent="6kLEhNdqr8ct7NocNxT4-280">
          <mxGeometry width="36" height="22" as="geometry">
            <mxRectangle width="36" height="22" as="alternateBounds" />
          </mxGeometry>
        </mxCell>
        <mxCell id="6kLEhNdqr8ct7NocNxT4-282" value="funding_sources" style="shape=partialRectangle;connectable=0;fillColor=none;top=0;left=0;bottom=0;right=0;align=left;spacingLeft=2;overflow=hidden;fontSize=11;" vertex="1" parent="6kLEhNdqr8ct7NocNxT4-280">
          <mxGeometry x="36" width="132" height="22" as="geometry">
            <mxRectangle width="132" height="22" as="alternateBounds" />
          </mxGeometry>
        </mxCell>
        <mxCell id="6kLEhNdqr8ct7NocNxT4-283" value="" style="shape=partialRectangle;connectable=0;fillColor=none;top=0;left=0;bottom=0;right=0;align=left;spacingLeft=2;overflow=hidden;fontSize=11;" vertex="1" parent="6kLEhNdqr8ct7NocNxT4-280">
          <mxGeometry x="168" width="22" height="22" as="geometry">
            <mxRectangle width="22" height="22" as="alternateBounds" />
          </mxGeometry>
        </mxCell>
        <mxCell id="6kLEhNdqr8ct7NocNxT4-284" value="" style="shape=partialRectangle;connectable=0;fillColor=none;top=0;left=0;bottom=0;right=0;align=left;spacingLeft=2;overflow=hidden;fontSize=11;" vertex="1" parent="6kLEhNdqr8ct7NocNxT4-280">
          <mxGeometry x="190" width="144" height="22" as="geometry">
            <mxRectangle width="144" height="22" as="alternateBounds" />
          </mxGeometry>
        </mxCell>
        <mxCell id="6kLEhNdqr8ct7NocNxT4-285" style="shape=tableRow;horizontal=0;startSize=0;swimlaneHead=0;swimlaneBody=0;fillColor=none;collapsible=0;dropTarget=0;points=[[0,0.5],[1,0.5]];portConstraint=eastwest;top=0;left=0;right=0;bottom=0;" vertex="1" parent="6kLEhNdqr8ct7NocNxT4-264">
          <mxGeometry y="113" width="334" height="22" as="geometry" />
        </mxCell>
        <mxCell id="6kLEhNdqr8ct7NocNxT4-286" value="string" style="shape=partialRectangle;connectable=0;fillColor=none;top=0;left=0;bottom=0;right=0;align=left;spacingLeft=2;overflow=hidden;fontSize=11;" vertex="1" parent="6kLEhNdqr8ct7NocNxT4-285">
          <mxGeometry width="36" height="22" as="geometry">
            <mxRectangle width="36" height="22" as="alternateBounds" />
          </mxGeometry>
        </mxCell>
        <mxCell id="6kLEhNdqr8ct7NocNxT4-287" value="team_members" style="shape=partialRectangle;connectable=0;fillColor=none;top=0;left=0;bottom=0;right=0;align=left;spacingLeft=2;overflow=hidden;fontSize=11;" vertex="1" parent="6kLEhNdqr8ct7NocNxT4-285">
          <mxGeometry x="36" width="132" height="22" as="geometry">
            <mxRectangle width="132" height="22" as="alternateBounds" />
          </mxGeometry>
        </mxCell>
        <mxCell id="6kLEhNdqr8ct7NocNxT4-288" value="" style="shape=partialRectangle;connectable=0;fillColor=none;top=0;left=0;bottom=0;right=0;align=left;spacingLeft=2;overflow=hidden;fontSize=11;" vertex="1" parent="6kLEhNdqr8ct7NocNxT4-285">
          <mxGeometry x="168" width="22" height="22" as="geometry">
            <mxRectangle width="22" height="22" as="alternateBounds" />
          </mxGeometry>
        </mxCell>
        <mxCell id="6kLEhNdqr8ct7NocNxT4-289" value="" style="shape=partialRectangle;connectable=0;fillColor=none;top=0;left=0;bottom=0;right=0;align=left;spacingLeft=2;overflow=hidden;fontSize=11;" vertex="1" parent="6kLEhNdqr8ct7NocNxT4-285">
          <mxGeometry x="190" width="144" height="22" as="geometry">
            <mxRectangle width="144" height="22" as="alternateBounds" />
          </mxGeometry>
        </mxCell>
        <mxCell id="6kLEhNdqr8ct7NocNxT4-290" style="shape=tableRow;horizontal=0;startSize=0;swimlaneHead=0;swimlaneBody=0;fillColor=none;collapsible=0;dropTarget=0;points=[[0,0.5],[1,0.5]];portConstraint=eastwest;top=0;left=0;right=0;bottom=0;" vertex="1" parent="6kLEhNdqr8ct7NocNxT4-264">
          <mxGeometry y="135" width="334" height="22" as="geometry" />
        </mxCell>
        <mxCell id="6kLEhNdqr8ct7NocNxT4-291" value="string" style="shape=partialRectangle;connectable=0;fillColor=none;top=0;left=0;bottom=0;right=0;align=left;spacingLeft=2;overflow=hidden;fontSize=11;" vertex="1" parent="6kLEhNdqr8ct7NocNxT4-290">
          <mxGeometry width="36" height="22" as="geometry">
            <mxRectangle width="36" height="22" as="alternateBounds" />
          </mxGeometry>
        </mxCell>
        <mxCell id="6kLEhNdqr8ct7NocNxT4-292" value="publications" style="shape=partialRectangle;connectable=0;fillColor=none;top=0;left=0;bottom=0;right=0;align=left;spacingLeft=2;overflow=hidden;fontSize=11;" vertex="1" parent="6kLEhNdqr8ct7NocNxT4-290">
          <mxGeometry x="36" width="132" height="22" as="geometry">
            <mxRectangle width="132" height="22" as="alternateBounds" />
          </mxGeometry>
        </mxCell>
        <mxCell id="6kLEhNdqr8ct7NocNxT4-293" value="" style="shape=partialRectangle;connectable=0;fillColor=none;top=0;left=0;bottom=0;right=0;align=left;spacingLeft=2;overflow=hidden;fontSize=11;" vertex="1" parent="6kLEhNdqr8ct7NocNxT4-290">
          <mxGeometry x="168" width="22" height="22" as="geometry">
            <mxRectangle width="22" height="22" as="alternateBounds" />
          </mxGeometry>
        </mxCell>
        <mxCell id="6kLEhNdqr8ct7NocNxT4-294" value="" style="shape=partialRectangle;connectable=0;fillColor=none;top=0;left=0;bottom=0;right=0;align=left;spacingLeft=2;overflow=hidden;fontSize=11;" vertex="1" parent="6kLEhNdqr8ct7NocNxT4-290">
          <mxGeometry x="190" width="144" height="22" as="geometry">
            <mxRectangle width="144" height="22" as="alternateBounds" />
          </mxGeometry>
        </mxCell>
        <mxCell id="6kLEhNdqr8ct7NocNxT4-295" style="shape=tableRow;horizontal=0;startSize=0;swimlaneHead=0;swimlaneBody=0;fillColor=none;collapsible=0;dropTarget=0;points=[[0,0.5],[1,0.5]];portConstraint=eastwest;top=0;left=0;right=0;bottom=0;" vertex="1" parent="6kLEhNdqr8ct7NocNxT4-264">
          <mxGeometry y="157" width="334" height="22" as="geometry" />
        </mxCell>
        <mxCell id="6kLEhNdqr8ct7NocNxT4-296" value="string" style="shape=partialRectangle;connectable=0;fillColor=none;top=0;left=0;bottom=0;right=0;align=left;spacingLeft=2;overflow=hidden;fontSize=11;" vertex="1" parent="6kLEhNdqr8ct7NocNxT4-295">
          <mxGeometry width="36" height="22" as="geometry">
            <mxRectangle width="36" height="22" as="alternateBounds" />
          </mxGeometry>
        </mxCell>
        <mxCell id="6kLEhNdqr8ct7NocNxT4-297" value="outcomes" style="shape=partialRectangle;connectable=0;fillColor=none;top=0;left=0;bottom=0;right=0;align=left;spacingLeft=2;overflow=hidden;fontSize=11;" vertex="1" parent="6kLEhNdqr8ct7NocNxT4-295">
          <mxGeometry x="36" width="132" height="22" as="geometry">
            <mxRectangle width="132" height="22" as="alternateBounds" />
          </mxGeometry>
        </mxCell>
        <mxCell id="6kLEhNdqr8ct7NocNxT4-298" value="" style="shape=partialRectangle;connectable=0;fillColor=none;top=0;left=0;bottom=0;right=0;align=left;spacingLeft=2;overflow=hidden;fontSize=11;" vertex="1" parent="6kLEhNdqr8ct7NocNxT4-295">
          <mxGeometry x="168" width="22" height="22" as="geometry">
            <mxRectangle width="22" height="22" as="alternateBounds" />
          </mxGeometry>
        </mxCell>
        <mxCell id="6kLEhNdqr8ct7NocNxT4-299" value="" style="shape=partialRectangle;connectable=0;fillColor=none;top=0;left=0;bottom=0;right=0;align=left;spacingLeft=2;overflow=hidden;fontSize=11;" vertex="1" parent="6kLEhNdqr8ct7NocNxT4-295">
          <mxGeometry x="190" width="144" height="22" as="geometry">
            <mxRectangle width="144" height="22" as="alternateBounds" />
          </mxGeometry>
        </mxCell>
        <mxCell id="6kLEhNdqr8ct7NocNxT4-300" value="has" style="curved=1;startArrow=ERmandOne;startSize=10;;endArrow=ERzeroToMany;endSize=10;;exitX=0.24;exitY=1;entryX=0.45;entryY=0;rounded=0;" edge="1" parent="1" source="6kLEhNdqr8ct7NocNxT4-1" target="6kLEhNdqr8ct7NocNxT4-53">
          <mxGeometry relative="1" as="geometry">
            <Array as="points">
              <mxPoint x="644" y="182" />
            </Array>
          </mxGeometry>
        </mxCell>
        <mxCell id="6kLEhNdqr8ct7NocNxT4-301" value="employs" style="curved=1;startArrow=ERmandOne;startSize=10;;endArrow=ERzeroToMany;endSize=10;;exitX=0.98;exitY=0.81;entryX=0.48;entryY=0;rounded=0;" edge="1" parent="1" source="6kLEhNdqr8ct7NocNxT4-1" target="6kLEhNdqr8ct7NocNxT4-99">
          <mxGeometry relative="1" as="geometry">
            <Array as="points">
              <mxPoint x="1058" y="182" />
            </Array>
          </mxGeometry>
        </mxCell>
        <mxCell id="6kLEhNdqr8ct7NocNxT4-302" value="offers" style="curved=1;startArrow=ERmandOne;startSize=10;;endArrow=ERzeroToMany;endSize=10;;exitX=0;exitY=0.68;entryX=0.47;entryY=0;rounded=0;" edge="1" parent="1" source="6kLEhNdqr8ct7NocNxT4-1" target="6kLEhNdqr8ct7NocNxT4-140">
          <mxGeometry relative="1" as="geometry">
            <Array as="points">
              <mxPoint x="198" y="182" />
            </Array>
          </mxGeometry>
        </mxCell>
        <mxCell id="6kLEhNdqr8ct7NocNxT4-303" value="registers" style="curved=1;startArrow=ERmandOne;startSize=10;;endArrow=ERzeroToMany;endSize=10;;exitX=0.49;exitY=1;entryX=0.43;entryY=0;rounded=0;" edge="1" parent="1" source="6kLEhNdqr8ct7NocNxT4-22" target="6kLEhNdqr8ct7NocNxT4-186">
          <mxGeometry relative="1" as="geometry">
            <Array as="points" />
          </mxGeometry>
        </mxCell>
        <mxCell id="6kLEhNdqr8ct7NocNxT4-304" value="advises" style="curved=1;startArrow=ERmandOne;startSize=10;;endArrow=ERzeroToMany;endSize=10;;exitX=0.91;exitY=0.8;entryX=0;entryY=0.2;rounded=0;" edge="1" parent="1" source="6kLEhNdqr8ct7NocNxT4-53" target="6kLEhNdqr8ct7NocNxT4-186">
          <mxGeometry relative="1" as="geometry">
            <Array as="points">
              <mxPoint x="1036" y="504" />
            </Array>
          </mxGeometry>
        </mxCell>
        <mxCell id="6kLEhNdqr8ct7NocNxT4-305" value="takes" style="curved=1;startArrow=ERmandOne;startSize=10;;endArrow=ERzeroToMany;endSize=10;;exitX=0.43;exitY=1;entryX=0.94;entryY=0.28;rounded=0;" edge="1" parent="1" source="6kLEhNdqr8ct7NocNxT4-186" target="6kLEhNdqr8ct7NocNxT4-237">
          <mxGeometry relative="1" as="geometry">
            <Array as="points">
              <mxPoint x="1427" y="848" />
            </Array>
          </mxGeometry>
        </mxCell>
        <mxCell id="6kLEhNdqr8ct7NocNxT4-306" value="is registered in" style="curved=1;startArrow=ERmandOne;startSize=10;;endArrow=ERzeroToMany;endSize=10;;exitX=0.35;exitY=1;entryX=0;entryY=0.31;rounded=0;" edge="1" parent="1" source="6kLEhNdqr8ct7NocNxT4-140" target="6kLEhNdqr8ct7NocNxT4-237">
          <mxGeometry relative="1" as="geometry">
            <Array as="points">
              <mxPoint x="148" y="504" />
              <mxPoint x="148" y="848" />
            </Array>
          </mxGeometry>
        </mxCell>
        <mxCell id="6kLEhNdqr8ct7NocNxT4-307" value="teaches" style="curved=1;startArrow=ERmandOne;startSize=10;;endArrow=ERzeroToMany;endSize=10;;exitX=0.09;exitY=1;entryX=0.53;entryY=0;rounded=0;" edge="1" parent="1" source="6kLEhNdqr8ct7NocNxT4-53" target="6kLEhNdqr8ct7NocNxT4-253">
          <mxGeometry relative="1" as="geometry">
            <Array as="points">
              <mxPoint x="459" y="504" />
            </Array>
          </mxGeometry>
        </mxCell>
        <mxCell id="6kLEhNdqr8ct7NocNxT4-308" value="is taught by" style="curved=1;startArrow=ERmandOne;startSize=10;;endArrow=ERzeroToMany;endSize=10;;exitX=0.74;exitY=1;entryX=0.42;entryY=0;rounded=0;" edge="1" parent="1" source="6kLEhNdqr8ct7NocNxT4-140" target="6kLEhNdqr8ct7NocNxT4-253">
          <mxGeometry relative="1" as="geometry">
            <Array as="points">
              <mxPoint x="310" y="504" />
            </Array>
          </mxGeometry>
        </mxCell>
        <mxCell id="6kLEhNdqr8ct7NocNxT4-309" value="leads" style="curved=1;startArrow=ERmandOne;startSize=10;;endArrow=ERzeroToMany;endSize=10;;exitX=0.65;exitY=1;entryX=0.44;entryY=0;rounded=0;" edge="1" parent="1" source="6kLEhNdqr8ct7NocNxT4-53" target="6kLEhNdqr8ct7NocNxT4-264">
          <mxGeometry relative="1" as="geometry">
            <Array as="points">
              <mxPoint x="743" y="504" />
            </Array>
          </mxGeometry>
        </mxCell>
      </root>
    </mxGraphModel>
  </diagram>
</mxfile>
